<svg width="51" height="50" viewBox="0 0 51 50" fill="none" xmlns="http://www.w3.org/2000/svg">
<path d="M28.07 0.00307588C29.8943 -0.00392443 31.7185 0.0144102 33.5422 0.0580742L34.0272 0.0755735C34.5872 0.0955728 35.1397 0.120572 35.8071 0.150571C38.467 0.275567 40.2819 0.695553 41.8743 1.31303C43.5242 1.94801 44.9142 2.80798 46.3041 4.19793C47.575 5.44691 48.5585 6.95771 49.1864 8.62528C49.8039 10.2177 50.2239 12.0352 50.3489 14.6951C50.3789 15.3601 50.4039 15.915 50.4239 16.475L50.4389 16.96C50.4833 18.7829 50.5025 20.6064 50.4964 22.4298L50.4989 24.2948V27.5696C50.505 29.3939 50.4859 31.2182 50.4414 33.042L50.4264 33.5269C50.4064 34.0869 50.3814 34.6394 50.3514 35.3069C50.2264 37.9668 49.8014 39.7817 49.1864 41.3742C48.5606 43.0435 47.5768 44.5556 46.3041 45.804C45.0541 47.0748 43.5425 48.0583 41.8743 48.6864C40.2819 49.3039 38.467 49.7239 35.8071 49.8489C35.1397 49.8789 34.5872 49.9039 34.0272 49.9239L33.5422 49.9389C31.7185 49.9833 29.8943 50.0025 28.07 49.9964L26.2051 49.9989H22.9328C21.1085 50.005 19.2843 49.9859 17.4606 49.9414L16.9756 49.9264C16.3822 49.9049 15.7888 49.8799 15.1957 49.8514C12.5358 49.7264 10.7209 49.3014 9.126 48.6864C7.45779 48.0598 5.94676 47.076 4.69873 45.804C3.42641 44.5548 2.4419 43.043 1.81388 41.3742C1.19641 39.7817 0.776428 37.9668 0.651435 35.3069C0.623593 34.7137 0.598594 34.1204 0.576439 33.5269L0.563939 33.042C0.517851 31.2182 0.497016 29.3939 0.501442 27.5696V22.4298C0.494465 20.6064 0.5128 18.7829 0.55644 16.96L0.573939 16.475C0.593938 15.915 0.618936 15.3601 0.648935 14.6951C0.773928 12.0327 1.19391 10.2202 1.81138 8.62528C2.43977 6.95689 3.4262 5.4465 4.70123 4.20043C5.9484 2.92736 7.45849 1.94194 9.126 1.31303C10.7209 0.695553 12.5333 0.275567 15.1957 0.150571L16.9756 0.0755735L17.4606 0.0630743C19.2834 0.0170079 21.1069 -0.003827 22.9303 0.00057615L28.07 0.00307588ZM25.5002 12.5027C23.844 12.4792 22.1997 12.7852 20.6628 13.4028C19.126 14.0204 17.7272 14.9373 16.5477 16.1002C15.3683 17.2631 14.4317 18.6488 13.7925 20.1768C13.1532 21.7048 12.824 23.3446 12.824 25.001C12.824 26.6573 13.1532 28.2971 13.7925 29.8252C14.4317 31.3532 15.3683 32.7389 16.5477 33.9018C17.7272 35.0647 19.126 35.9816 20.6628 36.5992C22.1997 37.2168 23.844 37.5227 25.5002 37.4993C28.8152 37.4993 31.9945 36.1824 34.3385 33.8383C36.6826 31.4941 37.9995 28.3148 37.9995 24.9997C37.9995 21.6846 36.6826 18.5053 34.3385 16.1612C31.9945 13.8171 28.8152 12.5027 25.5002 12.5027ZM25.5002 17.5025C26.4964 17.4841 27.4863 17.6645 28.412 18.033C29.3377 18.4015 30.1808 18.9508 30.8918 19.6488C31.6029 20.3468 32.1678 21.1794 32.5534 22.0982C32.9391 23.0169 33.1378 24.0033 33.1379 24.9997C33.1381 25.9961 32.9397 26.9826 32.5544 27.9014C32.169 28.8203 31.6045 29.6532 30.8936 30.3514C30.1828 31.0496 29.3399 31.5992 28.4143 31.968C27.4887 32.3368 26.4989 32.5175 25.5027 32.4995C23.5136 32.4995 21.6061 31.7093 20.1996 30.3028C18.7932 28.8964 18.003 26.9888 18.003 24.9997C18.003 23.0107 18.7932 21.1031 20.1996 19.6966C21.6061 18.2901 23.5136 17.5 25.5027 17.5L25.5002 17.5025ZM38.6245 8.75278C37.818 8.78506 37.0553 9.12814 36.4961 9.71017C35.9369 10.2922 35.6246 11.068 35.6246 11.8752C35.6246 12.6823 35.9369 13.4581 36.4961 14.0402C37.0553 14.6222 37.818 14.9653 38.6245 14.9976C39.4532 14.9976 40.2481 14.6683 40.8341 14.0823C41.4201 13.4963 41.7493 12.7014 41.7493 11.8727C41.7493 11.0439 41.4201 10.2491 40.8341 9.66304C40.2481 9.07701 39.4532 8.74778 38.6245 8.74778V8.75278Z" fill="#A85FBA"/>
</svg>
