<svg width="50" height="48" viewBox="0 0 50 48" fill="none" xmlns="http://www.w3.org/2000/svg">
<path d="M44.0556 0C45.4995 0 46.8843 0.561903 47.9054 1.5621C48.9264 2.56229 49.5 3.91885 49.5 5.33333V42.6667C49.5 44.0812 48.9264 45.4377 47.9054 46.4379C46.8843 47.4381 45.4995 48 44.0556 48H5.94444C4.50049 48 3.11567 47.4381 2.09464 46.4379C1.07361 45.4377 0.5 44.0812 0.5 42.6667V5.33333C0.5 3.91885 1.07361 2.56229 2.09464 1.5621C3.11567 0.561903 4.50049 0 5.94444 0H44.0556ZM42.6944 41.3333V27.2C42.6944 24.8944 41.7595 22.6832 40.0952 21.0529C38.4309 19.4226 36.1736 18.5067 33.82 18.5067C31.5061 18.5067 28.8111 19.8933 27.5044 21.9733V19.0133H19.9094V41.3333H27.5044V28.1867C27.5044 26.1333 29.1922 24.4533 31.2883 24.4533C32.2991 24.4533 33.2685 24.8467 33.9832 25.5468C34.6979 26.2469 35.0994 27.1965 35.0994 28.1867V41.3333H42.6944ZM11.0622 14.8267C12.2751 14.8267 13.4384 14.3547 14.2961 13.5145C15.1537 12.6743 15.6356 11.5348 15.6356 10.3467C15.6356 7.86667 13.5939 5.84 11.0622 5.84C9.84208 5.84 8.67191 6.31481 7.80914 7.15997C6.94637 8.00514 6.46167 9.15143 6.46167 10.3467C6.46167 12.8267 8.53056 14.8267 11.0622 14.8267ZM14.8461 41.3333V19.0133H7.30556V41.3333H14.8461Z" fill="#1E60B8"/>
</svg>
