<svg width="63" height="48" viewBox="0 0 63 48" fill="none" xmlns="http://www.w3.org/2000/svg">
<path fill-rule="evenodd" clip-rule="evenodd" d="M31.5 0C34.1505 0 36.8692 0.0660003 39.5042 0.174L42.6166 0.318L45.5957 0.489L48.3857 0.672L50.9339 0.864C53.6992 1.06883 56.3014 2.21084 58.2825 4.08912C60.2637 5.9674 61.4969 8.46162 61.7653 11.133L61.8893 12.408L62.1218 15.138C62.3388 17.967 62.5 21.051 62.5 24C62.5 26.949 62.3388 30.033 62.1218 32.862L61.8893 35.592C61.849 36.03 61.8087 36.453 61.7653 36.867C61.4968 39.5389 60.2631 42.0335 58.2814 43.9118C56.2996 45.7901 53.6967 46.9318 50.9308 47.136L48.3888 47.325L45.5988 47.511L42.6166 47.682L39.5042 47.826C36.8377 47.9381 34.169 47.9961 31.5 48C28.831 47.9961 26.1623 47.9381 23.4958 47.826L20.3834 47.682L17.4043 47.511L14.6143 47.325L12.0661 47.136C9.30075 46.9312 6.69861 45.7892 4.71747 43.9109C2.73632 42.0326 1.50308 39.5384 1.2347 36.867L1.1107 35.592L0.8782 32.862C0.641166 29.9134 0.515016 26.9575 0.5 24C0.5 21.051 0.6612 17.967 0.8782 15.138L1.1107 12.408C1.151 11.97 1.1913 11.547 1.2347 11.133C1.50298 8.46209 2.73577 5.96825 4.71628 4.09003C6.6968 2.21181 9.2982 1.06951 12.063 0.864L14.6081 0.672L17.3981 0.489L20.3803 0.318L23.4927 0.174C26.1602 0.0618988 28.8299 0.00388586 31.5 0ZM25.3 16.725V31.275C25.3 32.661 26.85 33.525 28.09 32.835L41.11 25.56C41.3933 25.4022 41.6286 25.1749 41.7923 24.901C41.9559 24.6271 42.0421 24.3164 42.0421 24C42.0421 23.6836 41.9559 23.3729 41.7923 23.099C41.6286 22.8251 41.3933 22.5978 41.11 22.44L28.09 15.168C27.8072 15.01 27.4863 14.9268 27.1597 14.9268C26.8331 14.9269 26.5123 15.0102 26.2295 15.1683C25.9467 15.3264 25.7119 15.5538 25.5487 15.8276C25.3856 16.1014 25.2998 16.4119 25.3 16.728V16.725Z" fill="#FA1C23"/>
</svg>
