<svg width="1440" height="2325" viewBox="0 0 1440 2325" fill="none" xmlns="http://www.w3.org/2000/svg">
<path d="M-182 2421.95L-163.947 2350.19C-163.947 2350.19 218.839 1987.62 531.376 2066.24C843.913 2144.86 1009.58 2645.4 1009.58 2645.4L991.525 2717.16C991.525 2717.16 828.431 2196.13 518.324 2118.12C208.218 2040.11 -182 2421.95 -182 2421.95Z" fill="#FF8900"/>
<path d="M-176.145 2404.68L-158.092 2332.91C-158.092 2332.91 225.84 1970.63 539.684 2049.58C853.528 2128.53 1020.34 2629.35 1020.34 2629.35L1002.29 2701.12C1002.29 2701.12 838.035 2179.8 526.632 2101.46C215.23 2023.13 -176.145 2404.68 -176.145 2404.68Z" fill="#457BFE"/>
<path d="M-178.829 2415.34L-160.776 2343.58C-160.776 2343.58 222.01 1981.01 534.547 2059.63C847.085 2138.25 1012.75 2638.79 1012.75 2638.79L994.697 2710.55C994.697 2710.55 831.602 2189.52 521.496 2111.51C211.389 2033.5 -178.829 2415.34 -178.829 2415.34Z" fill="#00FF79"/>
<path d="M1473.51 1969.41C1476.05 1967.93 1479.05 1967.49 1481.9 1968.17C1484.76 1968.86 1487.24 1970.62 1488.85 1973.1C1490.47 1975.58 1491.08 1978.58 1490.58 1981.51C1490.07 1984.43 1488.48 1987.05 1486.14 1988.82L1485.01 1989.58L1305.72 2094.36C1303.17 2095.85 1300.17 2096.29 1297.32 2095.6C1294.47 2094.92 1291.98 2093.16 1290.37 2090.68C1288.76 2088.2 1288.14 2085.19 1288.65 2082.27C1289.15 2079.34 1290.74 2076.73 1293.09 2074.95L1294.21 2074.2L1473.51 1969.41ZM1367.32 1829.8C1372.35 1826.87 1378.29 1825.96 1383.94 1827.26C1389.6 1828.57 1394.56 1831.99 1397.83 1836.84L1398.75 1838.33L1456.26 1939.16C1459.16 1944.25 1460.06 1950.26 1458.77 1955.98C1457.48 1961.71 1454.1 1966.74 1449.3 1970.05L1447.84 1970.97L1308.38 2052.47C1303.36 2055.41 1297.42 2056.32 1291.76 2055.01C1286.11 2053.71 1281.14 2050.28 1277.87 2045.43L1276.96 2043.95L1219.45 1943.12C1216.55 1938.03 1215.65 1932.02 1216.94 1926.29C1218.23 1920.56 1221.61 1915.54 1226.41 1912.23L1227.87 1911.31L1367.32 1829.8Z" fill="#FF8900"/>
<path d="M1492.55 1952.06C1495.09 1950.58 1498.09 1950.14 1500.94 1950.82C1503.8 1951.51 1506.28 1953.27 1507.9 1955.75C1509.51 1958.23 1510.12 1961.24 1509.62 1964.16C1509.11 1967.08 1507.52 1969.7 1505.18 1971.48L1504.05 1972.23L1324.76 2077.02C1322.21 2078.5 1319.21 2078.94 1316.36 2078.26C1313.51 2077.57 1311.02 2075.81 1309.41 2073.33C1307.8 2070.85 1307.18 2067.84 1307.69 2064.92C1308.19 2062 1309.78 2059.38 1312.13 2057.6L1313.25 2056.85L1492.55 1952.06ZM1386.36 1812.46C1391.39 1809.52 1397.33 1808.61 1402.98 1809.92C1408.64 1811.22 1413.6 1814.65 1416.87 1819.5L1417.79 1820.98L1475.3 1921.81C1478.2 1926.9 1479.1 1932.91 1477.81 1938.64C1476.52 1944.37 1473.14 1949.39 1468.34 1952.7L1466.88 1953.62L1327.42 2035.13C1322.4 2038.06 1316.46 2038.97 1310.8 2037.67C1305.15 2036.36 1300.18 2032.94 1296.91 2028.09L1296 2026.6L1238.49 1925.77C1235.59 1920.68 1234.69 1914.67 1235.98 1908.95C1237.27 1903.22 1240.65 1898.19 1245.45 1894.88L1246.91 1893.96L1386.36 1812.46Z" fill="#457CFF"/>
<path d="M1481.12 1961.18C1483.66 1959.7 1486.67 1959.26 1489.52 1959.94C1492.37 1960.63 1494.86 1962.39 1496.47 1964.87C1498.08 1967.35 1498.7 1970.36 1498.19 1973.28C1497.69 1976.2 1496.1 1978.82 1493.75 1980.6L1492.63 1981.35L1313.33 2086.14C1310.79 2087.62 1307.79 2088.06 1304.94 2087.38C1302.08 2086.69 1299.6 2084.93 1297.98 2082.45C1296.37 2079.97 1295.76 2076.96 1296.26 2074.04C1296.77 2071.12 1298.36 2068.5 1300.7 2066.72L1301.83 2065.97L1481.12 1961.18ZM1374.94 1821.58C1379.96 1818.64 1385.9 1817.73 1391.56 1819.04C1397.22 1820.34 1402.18 1823.76 1405.45 1828.62L1406.36 1830.1L1463.87 1930.93C1466.78 1936.02 1467.67 1942.03 1466.38 1947.76C1465.09 1953.49 1461.71 1958.51 1456.92 1961.82L1455.45 1962.74L1316 2044.25C1310.97 2047.18 1305.04 2048.09 1299.38 2046.79C1293.72 2045.48 1288.76 2042.06 1285.49 2037.21L1284.58 2035.72L1227.07 1934.89C1224.16 1929.8 1223.27 1923.79 1224.56 1918.06C1225.85 1912.34 1229.23 1907.31 1234.02 1904L1235.49 1903.08L1374.94 1821.58Z" fill="#00FF79"/>
<path d="M2050.78 1778.58L1968.62 1822.18C1968.62 1822.18 1324.72 1801.92 1153.94 1480.06C983.167 1158.2 1327.4 613.645 1327.4 613.645L1409.56 570.052C1409.56 570.052 1043.89 1129.18 1213.34 1448.54C1382.79 1767.9 2050.78 1778.58 2050.78 1778.58Z" fill="#457CFF"/>
<path d="M2024.14 1792.72L1941.98 1836.31C1941.98 1836.31 1297.44 1814.87 1125.95 1491.67C954.466 1168.46 1298.07 622.731 1298.07 622.731L1380.23 579.138C1380.23 579.138 1015.2 1139.46 1185.35 1460.15C1355.51 1780.84 2024.14 1792.72 2024.14 1792.72Z" fill="#FF3F4D"/>
<path d="M2036.35 1786.24L1954.19 1829.83C1954.19 1829.83 1310.28 1809.57 1139.51 1487.71C968.734 1165.85 1312.96 621.303 1312.96 621.303L1395.12 577.71C1395.12 577.71 1029.46 1136.84 1198.91 1456.2C1368.35 1775.55 2036.35 1786.24 2036.35 1786.24Z" fill="#BD00FF"/>
<path d="M71.4804 1454.69L120.834 1438.82L104.965 1389.47C102.861 1382.93 103.442 1375.81 106.582 1369.7C109.722 1363.58 115.162 1358.96 121.707 1356.86L171.061 1340.99C177.605 1338.89 184.718 1339.47 190.834 1342.61C196.95 1345.75 201.568 1351.19 203.672 1357.73L219.541 1407.09L268.895 1391.22C275.439 1389.11 282.552 1389.69 288.668 1392.83C294.784 1395.97 299.402 1401.41 301.506 1407.96L317.375 1457.31C319.48 1463.86 318.898 1470.97 315.758 1477.09C312.618 1483.2 307.178 1487.82 300.633 1489.92L251.279 1505.79L267.148 1555.15C269.253 1561.69 268.671 1568.8 265.531 1574.92C262.392 1581.04 256.951 1585.65 250.406 1587.76L201.053 1603.63C194.508 1605.73 187.395 1605.15 181.279 1602.01C175.164 1598.87 170.546 1593.43 168.441 1586.88L152.572 1537.53L103.219 1553.4C96.6739 1555.5 89.5613 1554.92 83.4455 1551.78C77.3296 1548.64 72.7116 1543.2 70.6072 1536.66L54.7382 1487.3C52.6338 1480.76 53.2155 1473.65 56.3553 1467.53C59.495 1461.42 64.9357 1456.8 71.4804 1454.69Z" fill="#FF3F4D"/>
<path d="M90.3671 1449.44L139.721 1433.57L123.852 1384.22C121.747 1377.67 122.329 1370.56 125.469 1364.45C128.609 1358.33 134.049 1353.71 140.594 1351.61L189.947 1335.74C196.492 1333.63 203.605 1334.22 209.721 1337.36C215.836 1340.5 220.454 1345.94 222.559 1352.48L238.428 1401.83L287.782 1385.97C294.326 1383.86 301.439 1384.44 307.555 1387.58C313.67 1390.72 318.288 1396.16 320.393 1402.71L336.262 1452.06C338.366 1458.61 337.785 1465.72 334.645 1471.83C331.505 1477.95 326.064 1482.57 319.52 1484.67L270.166 1500.54L286.035 1549.89C288.139 1556.44 287.558 1563.55 284.418 1569.67C281.278 1575.78 275.838 1580.4 269.293 1582.51L219.939 1598.38C213.395 1600.48 206.282 1599.9 200.166 1596.76C194.05 1593.62 189.432 1588.18 187.328 1581.63L171.459 1532.28L122.105 1548.15C115.561 1550.25 108.448 1549.67 102.332 1546.53C96.2164 1543.39 91.5983 1537.95 89.4939 1531.41L73.6249 1482.05C71.5205 1475.51 72.1022 1468.4 75.242 1462.28C78.3818 1456.16 83.8224 1451.55 90.3671 1449.44Z" fill="#457CFF"/>
<path d="M82.4641 1452.07L131.818 1436.2L115.949 1386.84C113.844 1380.3 114.426 1373.19 117.566 1367.07C120.705 1360.95 126.146 1356.34 132.691 1354.23L182.044 1338.36C188.589 1336.26 195.702 1336.84 201.818 1339.98C207.933 1343.12 212.551 1348.56 214.656 1355.11L230.525 1404.46L279.878 1388.59C286.423 1386.49 293.536 1387.07 299.652 1390.21C305.767 1393.35 310.385 1398.79 312.49 1405.33L328.359 1454.69C330.463 1461.23 329.882 1468.34 326.742 1474.46C323.602 1480.58 318.161 1485.19 311.617 1487.3L262.263 1503.17L278.132 1552.52C280.236 1559.06 279.655 1566.18 276.515 1572.29C273.375 1578.41 267.934 1583.03 261.39 1585.13L212.036 1601C205.492 1603.1 198.379 1602.52 192.263 1599.38C186.147 1596.24 181.529 1590.8 179.425 1584.26L163.556 1534.9L114.202 1550.77C107.658 1552.88 100.545 1552.3 94.4291 1549.16C88.3133 1546.02 83.6952 1540.58 81.5909 1534.03L65.7218 1484.68C63.6174 1478.13 64.1991 1471.02 67.3389 1464.9C70.4787 1458.79 75.9194 1454.17 82.4641 1452.07Z" fill="#BD00FF"/>
<path d="M871.603 1603.76C843.863 1590.82 813.827 1581.43 782.541 1576C782.267 1575.99 781.994 1576.04 781.741 1576.15C781.489 1576.26 781.264 1576.42 781.081 1576.63C777.326 1583.51 772.946 1592.49 770.026 1599.37C736.842 1594.37 703.094 1594.37 669.909 1599.37C666.989 1592.28 662.609 1583.51 658.646 1576.63C658.437 1576.21 657.812 1576 657.186 1576C625.899 1581.43 596.073 1590.82 568.124 1603.76C567.915 1603.76 567.706 1603.97 567.498 1604.17C510.765 1689.11 495.122 1771.76 502.839 1853.57C502.839 1853.98 503.047 1854.4 503.465 1854.61C541.009 1882.16 577.092 1898.85 612.759 1909.91C613.385 1910.12 614.011 1909.91 614.219 1909.5C622.562 1898.02 630.071 1885.91 636.537 1873.18C636.954 1872.35 636.537 1871.51 635.703 1871.3C623.814 1866.71 612.55 1861.29 601.496 1855.03C600.662 1854.61 600.662 1853.36 601.287 1852.73C603.582 1851.06 605.876 1849.18 608.17 1847.51C608.588 1847.1 609.213 1847.1 609.63 1847.3C681.381 1880.07 758.763 1880.07 829.679 1847.3C830.096 1847.1 830.722 1847.1 831.139 1847.51C833.434 1849.39 835.728 1851.06 838.022 1852.94C838.857 1853.57 838.857 1854.82 837.814 1855.24C826.968 1861.7 815.496 1866.92 803.607 1871.51C802.773 1871.72 802.564 1872.77 802.773 1873.39C809.447 1886.12 816.956 1898.23 825.091 1909.7C825.716 1909.91 826.342 1910.12 826.968 1909.91C862.843 1898.85 898.927 1882.16 936.471 1854.61C936.888 1854.4 937.097 1853.98 937.097 1853.57C946.274 1759.03 921.87 1677.01 872.438 1604.17C872.229 1603.97 872.02 1603.76 871.603 1603.76ZM647.383 1803.69C625.899 1803.69 607.962 1783.86 607.962 1759.44C607.962 1735.03 625.482 1715.2 647.383 1715.2C669.492 1715.2 687.013 1735.24 686.804 1759.44C686.804 1783.86 669.283 1803.69 647.383 1803.69ZM792.761 1803.69C771.278 1803.69 753.34 1783.86 753.34 1759.44C753.34 1735.03 770.861 1715.2 792.761 1715.2C814.87 1715.2 832.391 1735.24 832.182 1759.44C832.182 1783.86 814.87 1803.69 792.761 1803.69Z" fill="#4D58FF"/>
<path d="M606.757 1402.64H597.425C597.254 1401.43 596.906 1400.36 596.381 1399.42C595.855 1398.47 595.18 1397.66 594.356 1396.99C593.532 1396.33 592.581 1395.82 591.501 1395.46C590.436 1395.11 589.278 1394.93 588.028 1394.93C585.77 1394.93 583.802 1395.49 582.126 1396.61C580.45 1397.72 579.15 1399.34 578.227 1401.47C577.304 1403.59 576.842 1406.16 576.842 1409.18C576.842 1412.29 577.304 1414.91 578.227 1417.02C579.165 1419.14 580.471 1420.74 582.148 1421.82C583.824 1422.9 585.763 1423.44 587.964 1423.44C589.2 1423.44 590.344 1423.27 591.395 1422.95C592.46 1422.62 593.405 1422.14 594.229 1421.52C595.052 1420.88 595.734 1420.11 596.274 1419.2C596.828 1418.29 597.211 1417.25 597.425 1416.09L606.757 1416.13C606.515 1418.13 605.912 1420.06 604.946 1421.92C603.994 1423.77 602.709 1425.42 601.089 1426.89C599.484 1428.34 597.567 1429.49 595.336 1430.34C593.121 1431.18 590.613 1431.6 587.815 1431.6C583.923 1431.6 580.443 1430.72 577.375 1428.95C574.321 1427.19 571.906 1424.64 570.131 1421.31C568.369 1417.97 567.488 1413.93 567.488 1409.18C567.488 1404.42 568.383 1400.38 570.173 1397.04C571.963 1393.7 574.392 1391.16 577.46 1389.41C580.528 1387.65 583.98 1386.77 587.815 1386.77C590.344 1386.77 592.687 1387.12 594.846 1387.83C597.02 1388.54 598.944 1389.58 600.621 1390.94C602.297 1392.29 603.66 1393.95 604.711 1395.91C605.777 1397.87 606.459 1400.11 606.757 1402.64ZM627.989 1431.64C624.68 1431.64 621.817 1430.94 619.403 1429.53C617.002 1428.11 615.148 1426.13 613.841 1423.61C612.535 1421.06 611.881 1418.12 611.881 1414.76C611.881 1411.38 612.535 1408.43 613.841 1405.9C615.148 1403.36 617.002 1401.38 619.403 1399.98C621.817 1398.56 624.68 1397.85 627.989 1397.85C631.299 1397.85 634.154 1398.56 636.555 1399.98C638.969 1401.38 640.83 1403.36 642.137 1405.9C643.444 1408.43 644.097 1411.38 644.097 1414.76C644.097 1418.12 643.444 1421.06 642.137 1423.61C640.83 1426.13 638.969 1428.11 636.555 1429.53C634.154 1430.94 631.299 1431.64 627.989 1431.64ZM628.032 1424.61C629.537 1424.61 630.795 1424.18 631.803 1423.33C632.812 1422.46 633.572 1421.28 634.083 1419.79C634.608 1418.3 634.871 1416.6 634.871 1414.7C634.871 1412.8 634.608 1411.1 634.083 1409.61C633.572 1408.12 632.812 1406.94 631.803 1406.07C630.795 1405.2 629.537 1404.77 628.032 1404.77C626.512 1404.77 625.233 1405.2 624.197 1406.07C623.174 1406.94 622.4 1408.12 621.874 1409.61C621.363 1411.1 621.107 1412.8 621.107 1414.7C621.107 1416.6 621.363 1418.3 621.874 1419.79C622.4 1421.28 623.174 1422.46 624.197 1423.33C625.233 1424.18 626.512 1424.61 628.032 1424.61ZM649.999 1431V1398.27H658.65V1404.05H659.033C659.715 1402.13 660.851 1400.62 662.442 1399.51C664.033 1398.4 665.937 1397.85 668.153 1397.85C670.397 1397.85 672.307 1398.41 673.884 1399.53C675.461 1400.64 676.512 1402.14 677.037 1404.05H677.378C678.046 1402.17 679.253 1400.67 681.001 1399.55C682.762 1398.41 684.843 1397.85 687.243 1397.85C690.297 1397.85 692.776 1398.82 694.68 1400.77C696.597 1402.7 697.556 1405.44 697.556 1408.99V1431H688.501V1410.78C688.501 1408.96 688.018 1407.6 687.052 1406.69C686.086 1405.78 684.878 1405.33 683.43 1405.33C681.782 1405.33 680.496 1405.85 679.573 1406.9C678.65 1407.94 678.188 1409.31 678.188 1411.01V1431H669.388V1410.59C669.388 1408.98 668.927 1407.7 668.003 1406.75C667.094 1405.8 665.894 1405.33 664.403 1405.33C663.394 1405.33 662.485 1405.58 661.675 1406.09C660.88 1406.59 660.248 1407.29 659.779 1408.2C659.31 1409.1 659.076 1410.15 659.076 1411.36V1431H649.999ZM719.64 1431.64C716.274 1431.64 713.376 1430.96 710.947 1429.59C708.532 1428.22 706.672 1426.27 705.365 1423.76C704.058 1421.23 703.405 1418.24 703.405 1414.79C703.405 1411.42 704.058 1408.46 705.365 1405.92C706.672 1403.38 708.511 1401.4 710.883 1399.98C713.27 1398.56 716.068 1397.85 719.278 1397.85C721.437 1397.85 723.447 1398.19 725.308 1398.89C727.183 1399.57 728.817 1400.6 730.209 1401.98C731.615 1403.36 732.709 1405.09 733.49 1407.18C734.271 1409.25 734.662 1411.68 734.662 1414.47V1416.96H707.027V1411.33H726.118C726.118 1410.03 725.834 1408.87 725.265 1407.86C724.697 1406.85 723.909 1406.06 722.9 1405.5C721.906 1404.91 720.748 1404.62 719.427 1404.62C718.05 1404.62 716.828 1404.94 715.763 1405.58C714.711 1406.21 713.888 1407.05 713.291 1408.12C712.694 1409.17 712.389 1410.34 712.375 1411.63V1416.98C712.375 1418.6 712.673 1420 713.27 1421.18C713.881 1422.36 714.74 1423.27 715.848 1423.9C716.956 1424.54 718.27 1424.86 719.79 1424.86C720.798 1424.86 721.721 1424.72 722.559 1424.44C723.398 1424.15 724.115 1423.73 724.711 1423.16C725.308 1422.59 725.763 1421.89 726.075 1421.07L734.47 1421.62C734.044 1423.64 733.17 1425.4 731.849 1426.91C730.542 1428.4 728.852 1429.57 726.778 1430.4C724.719 1431.23 722.339 1431.64 719.64 1431.64ZM772.114 1387.36H781.233V1417.79C781.233 1420.6 780.601 1423.05 779.337 1425.12C778.087 1427.19 776.347 1428.79 774.117 1429.91C771.887 1431.04 769.294 1431.6 766.34 1431.6C763.712 1431.6 761.325 1431.13 759.181 1430.21C757.05 1429.27 755.36 1427.85 754.11 1425.95C752.86 1424.03 752.242 1421.62 752.256 1418.73H761.439C761.468 1419.88 761.702 1420.87 762.142 1421.69C762.597 1422.5 763.215 1423.12 763.996 1423.56C764.791 1423.99 765.729 1424.2 766.808 1424.2C767.945 1424.2 768.904 1423.96 769.685 1423.48C770.48 1422.98 771.084 1422.26 771.496 1421.31C771.908 1420.35 772.114 1419.18 772.114 1417.79V1387.36ZM803.477 1431.64C800.168 1431.64 797.306 1430.94 794.891 1429.53C792.49 1428.11 790.637 1426.13 789.33 1423.61C788.023 1421.06 787.369 1418.12 787.369 1414.76C787.369 1411.38 788.023 1408.43 789.33 1405.9C790.637 1403.36 792.49 1401.38 794.891 1399.98C797.306 1398.56 800.168 1397.85 803.477 1397.85C806.787 1397.85 809.642 1398.56 812.043 1399.98C814.458 1401.38 816.318 1403.36 817.625 1405.9C818.932 1408.43 819.585 1411.38 819.585 1414.76C819.585 1418.12 818.932 1421.06 817.625 1423.61C816.318 1426.13 814.458 1428.11 812.043 1429.53C809.642 1430.94 806.787 1431.64 803.477 1431.64ZM803.52 1424.61C805.026 1424.61 806.283 1424.18 807.291 1423.33C808.3 1422.46 809.06 1421.28 809.571 1419.79C810.097 1418.3 810.36 1416.6 810.36 1414.7C810.36 1412.8 810.097 1411.1 809.571 1409.61C809.06 1408.12 808.3 1406.94 807.291 1406.07C806.283 1405.2 805.026 1404.77 803.52 1404.77C802 1404.77 800.722 1405.2 799.685 1406.07C798.662 1406.94 797.888 1408.12 797.362 1409.61C796.851 1411.1 796.595 1412.8 796.595 1414.7C796.595 1416.6 796.851 1418.3 797.362 1419.79C797.888 1421.28 798.662 1422.46 799.685 1423.33C800.722 1424.18 802 1424.61 803.52 1424.61ZM825.487 1431V1398.27H834.564V1431H825.487ZM830.047 1394.05C828.698 1394.05 827.54 1393.61 826.574 1392.71C825.622 1391.8 825.146 1390.72 825.146 1389.45C825.146 1388.2 825.622 1387.13 826.574 1386.23C827.54 1385.33 828.698 1384.87 830.047 1384.87C831.396 1384.87 832.547 1385.33 833.499 1386.23C834.465 1387.13 834.948 1388.2 834.948 1389.45C834.948 1390.72 834.465 1391.8 833.499 1392.71C832.547 1393.61 831.396 1394.05 830.047 1394.05ZM850.912 1412.08V1431H841.835V1398.27H850.486V1404.05H850.869C851.594 1402.14 852.808 1400.64 854.513 1399.53C856.217 1398.41 858.284 1397.85 860.713 1397.85C862.986 1397.85 864.967 1398.34 866.657 1399.34C868.348 1400.33 869.662 1401.75 870.599 1403.6C871.537 1405.43 872.006 1407.62 872.006 1410.16V1431H862.929V1411.78C862.943 1409.78 862.432 1408.22 861.395 1407.09C860.358 1405.96 858.93 1405.39 857.112 1405.39C855.89 1405.39 854.811 1405.65 853.873 1406.18C852.95 1406.7 852.226 1407.47 851.7 1408.48C851.189 1409.47 850.926 1410.67 850.912 1412.08ZM532.124 1482.18C532.124 1486.94 531.222 1490.99 529.419 1494.33C527.629 1497.66 525.186 1500.21 522.089 1501.98C519.007 1503.72 515.541 1504.6 511.691 1504.6C507.813 1504.6 504.333 1503.72 501.251 1501.95C498.169 1500.19 495.732 1497.64 493.943 1494.31C492.153 1490.97 491.258 1486.93 491.258 1482.18C491.258 1477.42 492.153 1473.38 493.943 1470.04C495.732 1466.7 498.169 1464.16 501.251 1462.41C504.333 1460.65 507.813 1459.77 511.691 1459.77C515.541 1459.77 519.007 1460.65 522.089 1462.41C525.186 1464.16 527.629 1466.7 529.419 1470.04C531.222 1473.38 532.124 1477.42 532.124 1482.18ZM522.771 1482.18C522.771 1479.1 522.309 1476.5 521.386 1474.38C520.477 1472.27 519.191 1470.66 517.529 1469.57C515.867 1468.47 513.921 1467.93 511.691 1467.93C509.461 1467.93 507.515 1468.47 505.853 1469.57C504.191 1470.66 502.899 1472.27 501.975 1474.38C501.066 1476.5 500.612 1479.1 500.612 1482.18C500.612 1485.26 501.066 1487.86 501.975 1489.98C502.899 1492.1 504.191 1493.7 505.853 1494.8C507.515 1495.89 509.461 1496.44 511.691 1496.44C513.921 1496.44 515.867 1495.89 517.529 1494.8C519.191 1493.7 520.477 1492.1 521.386 1489.98C522.309 1487.86 522.771 1485.26 522.771 1482.18ZM559.775 1490.07V1471.27H568.852V1504H560.138V1498.06H559.797C559.058 1499.97 557.829 1501.51 556.111 1502.68C554.406 1503.84 552.325 1504.43 549.868 1504.43C547.68 1504.43 545.756 1503.93 544.094 1502.93C542.432 1501.94 541.132 1500.53 540.194 1498.69C539.271 1496.86 538.802 1494.67 538.788 1492.11V1471.27H547.865V1490.49C547.879 1492.42 548.398 1493.95 549.42 1495.07C550.443 1496.19 551.814 1496.76 553.532 1496.76C554.626 1496.76 555.649 1496.51 556.601 1496.01C557.552 1495.5 558.319 1494.75 558.902 1493.75C559.498 1492.76 559.79 1491.53 559.775 1490.07ZM576.112 1504V1471.27H584.912V1476.98H585.253C585.85 1474.95 586.851 1473.42 588.257 1472.38C589.664 1471.33 591.283 1470.8 593.115 1470.8C593.57 1470.8 594.06 1470.83 594.585 1470.89C595.111 1470.95 595.573 1471.02 595.97 1471.12V1479.18C595.544 1479.05 594.955 1478.94 594.202 1478.84C593.449 1478.74 592.76 1478.69 592.135 1478.69C590.8 1478.69 589.607 1478.98 588.556 1479.56C587.519 1480.13 586.695 1480.92 586.084 1481.95C585.487 1482.97 585.189 1484.15 585.189 1485.48V1504H576.112ZM653.222 1475.64H643.889C643.719 1474.43 643.371 1473.36 642.845 1472.42C642.32 1471.47 641.645 1470.66 640.821 1469.99C639.997 1469.33 639.046 1468.82 637.966 1468.46C636.901 1468.11 635.743 1467.93 634.493 1467.93C632.235 1467.93 630.267 1468.49 628.591 1469.61C626.915 1470.72 625.615 1472.34 624.692 1474.47C623.769 1476.59 623.307 1479.16 623.307 1482.18C623.307 1485.29 623.769 1487.91 624.692 1490.02C625.629 1492.14 626.936 1493.74 628.612 1494.82C630.289 1495.9 632.227 1496.44 634.429 1496.44C635.665 1496.44 636.808 1496.27 637.86 1495.95C638.925 1495.62 639.869 1495.14 640.693 1494.52C641.517 1493.88 642.199 1493.11 642.739 1492.2C643.293 1491.29 643.676 1490.25 643.889 1489.09L653.222 1489.13C652.98 1491.13 652.377 1493.06 651.411 1494.92C650.459 1496.77 649.173 1498.42 647.554 1499.89C645.949 1501.34 644.031 1502.49 641.801 1503.34C639.585 1504.18 637.078 1504.6 634.28 1504.6C630.388 1504.6 626.908 1503.72 623.84 1501.95C620.786 1500.19 618.371 1497.64 616.595 1494.31C614.834 1490.97 613.953 1486.93 613.953 1482.18C613.953 1477.42 614.848 1473.38 616.638 1470.04C618.428 1466.7 620.857 1464.16 623.925 1462.41C626.993 1460.65 630.445 1459.77 634.28 1459.77C636.808 1459.77 639.152 1460.12 641.311 1460.83C643.485 1461.54 645.409 1462.58 647.085 1463.94C648.762 1465.29 650.125 1466.95 651.176 1468.91C652.242 1470.87 652.923 1473.11 653.222 1475.64ZM674.454 1504.64C671.144 1504.64 668.282 1503.94 665.867 1502.53C663.467 1501.11 661.613 1499.13 660.306 1496.61C658.999 1494.06 658.346 1491.12 658.346 1487.76C658.346 1484.38 658.999 1481.43 660.306 1478.9C661.613 1476.36 663.467 1474.38 665.867 1472.98C668.282 1471.56 671.144 1470.85 674.454 1470.85C677.764 1470.85 680.619 1471.56 683.019 1472.98C685.434 1474.38 687.295 1476.36 688.602 1478.9C689.909 1481.43 690.562 1484.38 690.562 1487.76C690.562 1491.12 689.909 1494.06 688.602 1496.61C687.295 1499.13 685.434 1501.11 683.019 1502.53C680.619 1503.94 677.764 1504.64 674.454 1504.64ZM674.497 1497.61C676.002 1497.61 677.259 1497.18 678.268 1496.33C679.276 1495.46 680.036 1494.28 680.548 1492.79C681.073 1491.3 681.336 1489.6 681.336 1487.7C681.336 1485.8 681.073 1484.1 680.548 1482.61C680.036 1481.12 679.276 1479.94 678.268 1479.07C677.259 1478.2 676.002 1477.77 674.497 1477.77C672.977 1477.77 671.698 1478.2 670.661 1479.07C669.639 1479.94 668.865 1481.12 668.339 1482.61C667.828 1484.1 667.572 1485.8 667.572 1487.7C667.572 1489.6 667.828 1491.3 668.339 1492.79C668.865 1494.28 669.639 1495.46 670.661 1496.33C671.698 1497.18 672.977 1497.61 674.497 1497.61ZM696.464 1504V1471.27H705.115V1477.05H705.498C706.18 1475.13 707.316 1473.62 708.907 1472.51C710.498 1471.4 712.401 1470.85 714.617 1470.85C716.862 1470.85 718.772 1471.41 720.349 1472.53C721.926 1473.64 722.977 1475.14 723.502 1477.05H723.843C724.511 1475.17 725.718 1473.67 727.465 1472.55C729.227 1471.41 731.308 1470.85 733.708 1470.85C736.762 1470.85 739.241 1471.82 741.144 1473.77C743.062 1475.7 744.021 1478.44 744.021 1481.99V1504H734.965V1483.78C734.965 1481.96 734.482 1480.6 733.517 1479.69C732.551 1478.78 731.343 1478.33 729.894 1478.33C728.247 1478.33 726.961 1478.85 726.038 1479.9C725.115 1480.94 724.653 1482.31 724.653 1484.01V1504H715.853V1483.59C715.853 1481.98 715.392 1480.7 714.468 1479.75C713.559 1478.8 712.359 1478.33 710.867 1478.33C709.859 1478.33 708.95 1478.58 708.14 1479.09C707.345 1479.59 706.713 1480.29 706.244 1481.2C705.775 1482.1 705.541 1483.15 705.541 1484.36V1504H696.464ZM751.191 1504V1471.27H759.841V1477.05H760.225C760.906 1475.13 762.043 1473.62 763.634 1472.51C765.225 1471.4 767.128 1470.85 769.344 1470.85C771.588 1470.85 773.499 1471.41 775.075 1472.53C776.652 1473.64 777.703 1475.14 778.229 1477.05H778.57C779.237 1475.17 780.445 1473.67 782.192 1472.55C783.953 1471.41 786.034 1470.85 788.435 1470.85C791.489 1470.85 793.968 1471.82 795.871 1473.77C797.789 1475.7 798.747 1478.44 798.747 1481.99V1504H789.692V1483.78C789.692 1481.96 789.209 1480.6 788.243 1479.69C787.277 1478.78 786.07 1478.33 784.621 1478.33C782.973 1478.33 781.688 1478.85 780.764 1479.9C779.841 1480.94 779.379 1482.31 779.379 1484.01V1504H770.58V1483.59C770.58 1481.98 770.118 1480.7 769.195 1479.75C768.286 1478.8 767.085 1478.33 765.594 1478.33C764.585 1478.33 763.676 1478.58 762.867 1479.09C762.071 1479.59 761.439 1480.29 760.97 1481.2C760.502 1482.1 760.267 1483.15 760.267 1484.36V1504H751.191ZM826.904 1490.07V1471.27H835.981V1504H827.267V1498.06H826.926C826.187 1499.97 824.958 1501.51 823.24 1502.68C821.535 1503.84 819.454 1504.43 816.997 1504.43C814.809 1504.43 812.884 1503.93 811.222 1502.93C809.561 1501.94 808.261 1500.53 807.323 1498.69C806.4 1496.86 805.931 1494.67 805.917 1492.11V1471.27H814.994V1490.49C815.008 1492.42 815.526 1493.95 816.549 1495.07C817.572 1496.19 818.943 1496.76 820.661 1496.76C821.755 1496.76 822.778 1496.51 823.73 1496.01C824.681 1495.5 825.448 1494.75 826.031 1493.75C826.627 1492.76 826.919 1491.53 826.904 1490.07ZM852.318 1485.08V1504H843.241V1471.27H851.892V1477.05H852.275C853 1475.14 854.214 1473.64 855.919 1472.53C857.623 1471.41 859.69 1470.85 862.119 1470.85C864.392 1470.85 866.373 1471.34 868.064 1472.34C869.754 1473.33 871.068 1474.75 872.006 1476.6C872.943 1478.43 873.412 1480.62 873.412 1483.16V1504H864.335V1484.78C864.349 1482.78 863.838 1481.22 862.801 1480.09C861.764 1478.96 860.336 1478.39 858.518 1478.39C857.297 1478.39 856.217 1478.65 855.28 1479.18C854.356 1479.7 853.632 1480.47 853.106 1481.48C852.595 1482.47 852.332 1483.67 852.318 1485.08ZM880.566 1504V1471.27H889.642V1504H880.566ZM885.125 1467.05C883.776 1467.05 882.618 1466.61 881.652 1465.71C880.7 1464.8 880.225 1463.72 880.225 1462.45C880.225 1461.2 880.7 1460.13 881.652 1459.23C882.618 1458.33 883.776 1457.87 885.125 1457.87C886.475 1457.87 887.625 1458.33 888.577 1459.23C889.543 1460.13 890.026 1461.2 890.026 1462.45C890.026 1463.72 889.543 1464.8 888.577 1465.71C887.625 1466.61 886.475 1467.05 885.125 1467.05ZM914.321 1471.27V1478.09H894.612V1471.27H914.321ZM899.086 1463.43H908.163V1493.94C908.163 1494.78 908.291 1495.43 908.547 1495.9C908.802 1496.36 909.157 1496.68 909.612 1496.86C910.081 1497.05 910.621 1497.14 911.231 1497.14C911.657 1497.14 912.084 1497.1 912.51 1497.03C912.936 1496.95 913.263 1496.88 913.49 1496.84L914.917 1503.6C914.463 1503.74 913.824 1503.9 913 1504.09C912.176 1504.28 911.175 1504.4 909.996 1504.45C907.808 1504.53 905.89 1504.24 904.243 1503.57C902.609 1502.91 901.338 1501.87 900.429 1500.46C899.52 1499.06 899.072 1497.28 899.086 1495.14V1463.43ZM925.837 1516.27C924.687 1516.27 923.607 1516.18 922.599 1516C921.604 1515.83 920.78 1515.61 920.127 1515.34L922.172 1508.56C923.238 1508.89 924.197 1509.06 925.049 1509.09C925.915 1509.12 926.661 1508.92 927.286 1508.5C927.925 1508.07 928.444 1507.35 928.841 1506.32L929.374 1504.94L917.634 1471.27H927.18L933.955 1495.31H934.296L941.135 1471.27H950.745L938.025 1507.54C937.414 1509.3 936.583 1510.83 935.532 1512.14C934.495 1513.46 933.181 1514.48 931.59 1515.19C929.999 1515.91 928.081 1516.27 925.837 1516.27Z" fill="white"/>
<path d="M580.468 2025.64C577.158 2025.64 574.296 2024.94 571.881 2023.53C569.48 2022.11 567.627 2020.13 566.32 2017.61C565.013 2015.06 564.36 2012.12 564.36 2008.76C564.36 2005.38 565.013 2002.43 566.32 1999.9C567.627 1997.36 569.48 1995.38 571.881 1993.98C574.296 1992.56 577.158 1991.85 580.468 1991.85C583.777 1991.85 586.632 1992.56 589.033 1993.98C591.448 1995.38 593.309 1997.36 594.615 1999.9C595.922 2002.43 596.576 2005.38 596.576 2008.76C596.576 2012.12 595.922 2015.06 594.615 2017.61C593.309 2020.13 591.448 2022.11 589.033 2023.53C586.632 2024.94 583.777 2025.64 580.468 2025.64ZM580.51 2018.61C582.016 2018.61 583.273 2018.18 584.282 2017.33C585.29 2016.46 586.05 2015.28 586.561 2013.79C587.087 2012.3 587.35 2010.6 587.35 2008.7C587.35 2006.8 587.087 2005.1 586.561 2003.61C586.05 2002.12 585.29 2000.94 584.282 2000.07C583.273 1999.2 582.016 1998.77 580.51 1998.77C578.99 1998.77 577.712 1999.2 576.675 2000.07C575.652 2000.94 574.878 2002.12 574.353 2003.61C573.841 2005.1 573.586 2006.8 573.586 2008.7C573.586 2010.6 573.841 2012.3 574.353 2013.79C574.878 2015.28 575.652 2016.46 576.675 2017.33C577.712 2018.18 578.99 2018.61 580.51 2018.61ZM611.554 2006.08V2025H602.478V1992.27H611.128V1998.05H611.512C612.236 1996.14 613.451 1994.64 615.155 1993.53C616.86 1992.41 618.926 1991.85 621.355 1991.85C623.628 1991.85 625.61 1992.34 627.3 1993.34C628.99 1994.33 630.304 1995.75 631.242 1997.6C632.179 1999.43 632.648 2001.62 632.648 2004.16V2025H623.571V2005.78C623.586 2003.78 623.074 2002.22 622.037 2001.09C621 1999.96 619.573 1999.39 617.755 1999.39C616.533 1999.39 615.453 1999.65 614.516 2000.18C613.593 2000.7 612.868 2001.47 612.343 2002.48C611.831 2003.47 611.569 2004.67 611.554 2006.08ZM669.328 2025H653.859V1981.36H669.456C673.845 1981.36 677.623 1982.24 680.791 1983.98C683.958 1985.72 686.395 1988.21 688.099 1991.46C689.818 1994.72 690.677 1998.61 690.677 2003.14C690.677 2007.68 689.818 2011.59 688.099 2014.86C686.395 2018.12 683.944 2020.63 680.748 2022.38C677.566 2024.13 673.76 2025 669.328 2025ZM663.085 2017.1H668.944C671.672 2017.1 673.966 2016.61 675.826 2015.65C677.701 2014.67 679.108 2013.15 680.045 2011.11C680.997 2009.05 681.473 2006.39 681.473 2003.14C681.473 1999.91 680.997 1997.28 680.045 1995.23C679.108 1993.19 677.708 1991.68 675.848 1990.72C673.987 1989.75 671.693 1989.27 668.966 1989.27H663.085V2017.1ZM697.341 2025V1992.27H706.418V2025H697.341ZM701.901 1988.05C700.551 1988.05 699.393 1987.61 698.428 1986.71C697.476 1985.8 697 1984.72 697 1983.45C697 1982.2 697.476 1981.13 698.428 1980.23C699.393 1979.33 700.551 1978.87 701.901 1978.87C703.25 1978.87 704.401 1979.33 705.352 1980.23C706.318 1981.13 706.801 1982.2 706.801 1983.45C706.801 1984.72 706.318 1985.8 705.352 1986.71C704.401 1987.61 703.25 1988.05 701.901 1988.05ZM740.919 2001.61L732.609 2002.12C732.467 2001.41 732.162 2000.77 731.693 2000.2C731.224 1999.62 730.606 1999.15 729.839 1998.81C729.086 1998.46 728.184 1998.28 727.133 1998.28C725.727 1998.28 724.541 1998.58 723.575 1999.18C722.609 1999.76 722.126 2000.54 722.126 2001.52C722.126 2002.3 722.439 2002.96 723.064 2003.5C723.689 2004.04 724.761 2004.47 726.281 2004.8L732.204 2005.99C735.386 2006.65 737.758 2007.7 739.321 2009.15C740.883 2010.6 741.664 2012.5 741.664 2014.86C741.664 2017 741.032 2018.88 739.768 2020.5C738.518 2022.12 736.799 2023.39 734.612 2024.3C732.439 2025.19 729.931 2025.64 727.091 2025.64C722.758 2025.64 719.306 2024.74 716.735 2022.93C714.179 2021.12 712.68 2018.64 712.24 2015.52L721.167 2015.05C721.437 2016.37 722.091 2017.38 723.127 2018.08C724.164 2018.76 725.493 2019.1 727.112 2019.1C728.703 2019.1 729.981 2018.79 730.947 2018.18C731.927 2017.56 732.424 2016.75 732.439 2015.77C732.424 2014.95 732.076 2014.28 731.395 2013.75C730.713 2013.21 729.662 2012.8 728.241 2012.51L722.574 2011.38C719.377 2010.75 716.998 2009.64 715.436 2008.06C713.887 2006.48 713.113 2004.47 713.113 2002.03C713.113 1999.93 713.681 1998.12 714.818 1996.6C715.968 1995.08 717.581 1993.91 719.654 1993.08C721.743 1992.26 724.186 1991.85 726.984 1991.85C731.118 1991.85 734.37 1992.72 736.743 1994.47C739.129 1996.21 740.521 1998.59 740.919 2001.61ZM762.167 2025.64C758.815 2025.64 755.931 2024.93 753.516 2023.51C751.116 2022.07 749.269 2020.09 747.977 2017.54C746.698 2015 746.059 2012.07 746.059 2008.76C746.059 2005.41 746.705 2002.47 747.998 1999.94C749.305 1997.4 751.158 1995.42 753.559 1994C755.96 1992.56 758.815 1991.85 762.124 1991.85C764.979 1991.85 767.479 1992.37 769.624 1993.4C771.769 1994.44 773.467 1995.89 774.717 1997.77C775.967 1999.64 776.656 2001.85 776.783 2004.38H768.218C767.977 2002.74 767.337 2001.43 766.3 2000.43C765.278 1999.42 763.935 1998.92 762.273 1998.92C760.867 1998.92 759.638 1999.3 758.587 2000.07C757.55 2000.82 756.741 2001.92 756.158 2003.37C755.576 2004.82 755.285 2006.58 755.285 2008.64C755.285 2010.72 755.569 2012.5 756.137 2013.96C756.719 2015.43 757.536 2016.54 758.587 2017.31C759.638 2018.08 760.867 2018.46 762.273 2018.46C763.31 2018.46 764.241 2018.25 765.065 2017.82C765.903 2017.39 766.592 2016.78 767.131 2015.97C767.685 2015.14 768.048 2014.15 768.218 2013H776.783C776.641 2015.5 775.96 2017.71 774.738 2019.61C773.531 2021.5 771.862 2022.98 769.731 2024.04C767.6 2025.11 765.079 2025.64 762.167 2025.64ZM797.382 2025.64C794.072 2025.64 791.21 2024.94 788.795 2023.53C786.395 2022.11 784.541 2020.13 783.234 2017.61C781.927 2015.06 781.274 2012.12 781.274 2008.76C781.274 2005.38 781.927 2002.43 783.234 1999.9C784.541 1997.36 786.395 1995.38 788.795 1993.98C791.21 1992.56 794.072 1991.85 797.382 1991.85C800.691 1991.85 803.547 1992.56 805.947 1993.98C808.362 1995.38 810.223 1997.36 811.529 1999.9C812.836 2002.43 813.49 2005.38 813.49 2008.76C813.49 2012.12 812.836 2015.06 811.529 2017.61C810.223 2020.13 808.362 2022.11 805.947 2023.53C803.547 2024.94 800.691 2025.64 797.382 2025.64ZM797.424 2018.61C798.93 2018.61 800.187 2018.18 801.196 2017.33C802.204 2016.46 802.964 2015.28 803.475 2013.79C804.001 2012.3 804.264 2010.6 804.264 2008.7C804.264 2006.8 804.001 2005.1 803.475 2003.61C802.964 2002.12 802.204 2000.94 801.196 2000.07C800.187 1999.2 798.93 1998.77 797.424 1998.77C795.904 1998.77 794.626 1999.2 793.589 2000.07C792.566 2000.94 791.792 2002.12 791.267 2003.61C790.755 2005.1 790.5 2006.8 790.5 2008.7C790.5 2010.6 790.755 2012.3 791.267 2013.79C791.792 2015.28 792.566 2016.46 793.589 2017.33C794.626 2018.18 795.904 2018.61 797.424 2018.61ZM819.392 2025V1992.27H828.191V1997.98H828.532C829.129 1995.95 830.13 1994.42 831.537 1993.38C832.943 1992.33 834.562 1991.8 836.395 1991.8C836.849 1991.8 837.339 1991.83 837.865 1991.89C838.39 1991.95 838.852 1992.02 839.25 1992.12V2000.18C838.824 2000.05 838.234 1999.94 837.481 1999.84C836.728 1999.74 836.039 1999.69 835.414 1999.69C834.079 1999.69 832.886 1999.98 831.835 2000.56C830.798 2001.13 829.974 2001.92 829.363 2002.95C828.767 2003.97 828.468 2005.15 828.468 2006.48V2025H819.392ZM854.479 2025.53C851.993 2025.53 849.741 2024.89 847.724 2023.62C845.722 2022.32 844.131 2020.43 842.952 2017.93C841.787 2015.41 841.205 2012.33 841.205 2008.68C841.205 2004.93 841.808 2001.81 843.016 1999.33C844.223 1996.83 845.828 1994.96 847.831 1993.72C849.848 1992.47 852.057 1991.85 854.457 1991.85C856.29 1991.85 857.817 1992.16 859.038 1992.78C860.274 1993.39 861.268 1994.16 862.021 1995.09C862.788 1995.99 863.371 1996.89 863.768 1997.77H864.045V1981.36H873.101V2025H864.152V2019.76H863.768C863.342 2020.67 862.739 2021.57 861.957 2022.46C861.19 2023.35 860.189 2024.08 858.953 2024.66C857.732 2025.24 856.24 2025.53 854.479 2025.53ZM857.355 2018.31C858.818 2018.31 860.054 2017.91 861.062 2017.12C862.085 2016.31 862.866 2015.18 863.406 2013.73C863.96 2012.28 864.237 2010.58 864.237 2008.64C864.237 2006.69 863.967 2005 863.428 2003.57C862.888 2002.13 862.107 2001.02 861.084 2000.24C860.061 1999.46 858.818 1999.07 857.355 1999.07C855.864 1999.07 854.607 1999.47 853.584 2000.28C852.561 2001.09 851.787 2002.22 851.261 2003.65C850.736 2005.09 850.473 2006.75 850.473 2008.64C850.473 2010.54 850.736 2012.22 851.261 2013.69C851.801 2015.13 852.575 2016.27 853.584 2017.1C854.607 2017.9 855.864 2018.31 857.355 2018.31Z" fill="white"/>
</svg>
