<svg width="1440" height="1748" viewBox="0 0 1440 1748" fill="none" xmlns="http://www.w3.org/2000/svg">
<path d="M-178.829 1838.34L-160.776 1766.58C-160.776 1766.58 222.01 1404.01 534.547 1482.63C847.085 1561.25 1012.75 2061.79 1012.75 2061.79L994.696 2133.55C994.696 2133.55 831.602 1612.52 521.496 1534.51C211.389 1456.5 -178.829 1838.34 -178.829 1838.34Z" fill="#00FF79"/>
<path d="M1481.12 1384.18C1483.66 1382.7 1486.67 1382.26 1489.52 1382.94C1492.37 1383.63 1494.86 1385.39 1496.47 1387.87C1498.08 1390.35 1498.7 1393.36 1498.19 1396.28C1497.69 1399.2 1496.1 1401.82 1493.75 1403.6L1492.63 1404.35L1313.33 1509.14C1310.79 1510.62 1307.79 1511.06 1304.94 1510.38C1302.08 1509.69 1299.6 1507.93 1297.98 1505.45C1296.37 1502.97 1295.76 1499.96 1296.26 1497.04C1296.77 1494.12 1298.36 1491.5 1300.7 1489.72L1301.83 1488.97L1481.12 1384.18ZM1374.94 1244.58C1379.96 1241.64 1385.9 1240.73 1391.56 1242.04C1397.22 1243.34 1402.18 1246.76 1405.45 1251.62L1406.36 1253.1L1463.87 1353.93C1466.78 1359.02 1467.67 1365.03 1466.38 1370.76C1465.09 1376.49 1461.71 1381.51 1456.92 1384.82L1455.45 1385.74L1316 1467.25C1310.97 1470.18 1305.04 1471.09 1299.38 1469.79C1293.72 1468.48 1288.76 1465.06 1285.49 1460.21L1284.58 1458.72L1227.07 1357.89C1224.16 1352.8 1223.27 1346.79 1224.56 1341.06C1225.85 1335.34 1229.23 1330.31 1234.02 1327L1235.49 1326.08L1374.94 1244.58Z" fill="#00FF79"/>
<path d="M2036.35 1209.24L1954.19 1252.83C1954.19 1252.83 1310.28 1232.57 1139.51 910.714C968.734 588.855 1312.96 44.3033 1312.96 44.3033L1395.12 0.710493C1395.12 0.710493 1029.46 559.841 1198.91 879.198C1368.35 1198.55 2036.35 1209.24 2036.35 1209.24Z" fill="#BD00FF"/>
<path d="M71.4804 877.693L120.834 861.824L104.965 812.47C102.861 805.925 103.442 798.813 106.582 792.697C109.722 786.581 115.162 781.963 121.707 779.859L171.061 763.99C177.605 761.885 184.718 762.467 190.834 765.607C196.95 768.747 201.568 774.187 203.672 780.732L219.541 830.086L268.895 814.216C275.439 812.112 282.552 812.694 288.668 815.834C294.784 818.973 299.402 824.414 301.506 830.959L317.375 880.312C319.48 886.857 318.898 893.97 315.758 900.085C312.618 906.201 307.178 910.819 300.633 912.924L251.279 928.793L267.148 978.146C269.253 984.691 268.671 991.804 265.531 997.919C262.392 1004.04 256.951 1008.65 250.406 1010.76L201.053 1026.63C194.508 1028.73 187.395 1028.15 181.279 1025.01C175.164 1021.87 170.546 1016.43 168.441 1009.88L152.572 960.531L103.219 976.4C96.6739 978.504 89.5613 977.923 83.4455 974.783C77.3296 971.643 72.7116 966.202 70.6072 959.658L54.7382 910.304C52.6338 903.759 53.2155 896.647 56.3553 890.531C59.495 884.415 64.9357 879.797 71.4804 877.693Z" fill="#FF3F4D"/>
<path d="M90.3671 872.441L139.721 856.572L123.852 807.219C121.747 800.674 122.329 793.561 125.469 787.446C128.609 781.33 134.049 776.712 140.594 774.607L189.947 758.738C196.492 756.634 203.605 757.216 209.721 760.355C215.836 763.495 220.454 768.936 222.559 775.48L238.428 824.834L287.782 808.965C294.326 806.861 301.439 807.442 307.555 810.582C313.67 813.722 318.288 819.163 320.393 825.707L336.262 875.061C338.366 881.606 337.785 888.718 334.645 894.834C331.505 900.95 326.064 905.568 319.52 907.672L270.166 923.541L286.035 972.895C288.139 979.44 287.558 986.552 284.418 992.668C281.278 998.784 275.838 1003.4 269.293 1005.51L219.939 1021.38C213.395 1023.48 206.282 1022.9 200.166 1019.76C194.05 1016.62 189.432 1011.18 187.328 1004.63L171.459 955.279L122.105 971.148C115.561 973.253 108.448 972.671 102.332 969.531C96.2164 966.392 91.5983 960.951 89.4939 954.406L73.6249 905.053C71.5205 898.508 72.1022 891.395 75.242 885.28C78.3818 879.164 83.8224 874.546 90.3671 872.441Z" fill="#457CFF"/>
<path d="M82.4641 875.067L131.818 859.197L115.949 809.844C113.844 803.299 114.426 796.187 117.566 790.071C120.705 783.955 126.146 779.337 132.691 777.233L182.044 761.363C188.589 759.259 195.702 759.841 201.818 762.981C207.933 766.12 212.551 771.561 214.656 778.106L230.525 827.459L279.878 811.59C286.423 809.486 293.536 810.068 299.652 813.207C305.767 816.347 310.385 821.788 312.49 828.333L328.359 877.686C330.463 884.231 329.882 891.343 326.742 897.459C323.602 903.575 318.161 908.193 311.617 910.297L262.263 926.167L278.132 975.52C280.236 982.065 279.655 989.177 276.515 995.293C273.375 1001.41 267.934 1006.03 261.39 1008.13L212.036 1024C205.492 1026.1 198.379 1025.52 192.263 1022.38C186.147 1019.24 181.529 1013.8 179.425 1007.26L163.556 957.905L114.202 973.774C107.658 975.878 100.545 975.296 94.4291 972.157C88.3133 969.017 83.6952 963.576 81.5909 957.031L65.7218 907.678C63.6174 901.133 64.1991 894.021 67.3389 887.905C70.4787 881.789 75.9194 877.171 82.4641 875.067Z" fill="#BD00FF"/>
</svg>
