<svg width="1440" height="3359" viewBox="0 0 1440 3359" fill="none" xmlns="http://www.w3.org/2000/svg">
<g clip-path="url(#clip0_257_130)">
<path d="M-182 3455.95L-163.947 3384.19C-163.947 3384.19 218.839 3021.62 531.376 3100.24C843.913 3178.86 1009.58 3679.4 1009.58 3679.4L991.525 3751.16C991.525 3751.16 828.431 3230.13 518.324 3152.12C208.218 3074.11 -182 3455.95 -182 3455.95Z" fill="#FF555D"/>
<path d="M-176.145 3438.68L-158.092 3366.91C-158.092 3366.91 225.84 3004.63 539.684 3083.58C853.528 3162.53 1020.34 3663.36 1020.34 3663.36L1002.29 3735.12C1002.29 3735.12 838.035 3213.8 526.632 3135.46C215.23 3057.13 -176.145 3438.68 -176.145 3438.68Z" fill="#457BFE"/>
<path d="M-178.829 3449.34L-160.776 3377.58C-160.776 3377.58 222.01 3015.01 534.547 3093.63C847.085 3172.25 1012.75 3672.79 1012.75 3672.79L994.697 3744.55C994.697 3744.55 831.602 3223.52 521.496 3145.51C211.389 3067.5 -178.829 3449.34 -178.829 3449.34Z" fill="#ADFFE3"/>
<path d="M1473.51 3003.41C1476.05 3001.93 1479.05 3001.49 1481.9 3002.17C1484.76 3002.86 1487.24 3004.62 1488.85 3007.1C1490.47 3009.58 1491.08 3012.58 1490.58 3015.51C1490.07 3018.43 1488.48 3021.05 1486.14 3022.82L1485.01 3023.58L1305.72 3128.36C1303.17 3129.85 1300.17 3130.29 1297.32 3129.6C1294.47 3128.92 1291.98 3127.16 1290.37 3124.68C1288.76 3122.2 1288.14 3119.19 1288.65 3116.27C1289.15 3113.34 1290.74 3110.73 1293.09 3108.95L1294.21 3108.2L1473.51 3003.41ZM1367.32 2863.8C1372.35 2860.87 1378.29 2859.96 1383.94 2861.26C1389.6 2862.57 1394.56 2865.99 1397.83 2870.84L1398.75 2872.33L1456.26 2973.16C1459.16 2978.25 1460.06 2984.26 1458.77 2989.98C1457.48 2995.71 1454.1 3000.74 1449.3 3004.05L1447.84 3004.97L1308.38 3086.47C1303.36 3089.41 1297.42 3090.32 1291.76 3089.01C1286.11 3087.71 1281.14 3084.28 1277.87 3079.43L1276.96 3077.95L1219.45 2977.12C1216.55 2972.03 1215.65 2966.02 1216.94 2960.29C1218.23 2954.56 1221.61 2949.54 1226.41 2946.23L1227.87 2945.31L1367.32 2863.8Z" fill="#FF555D"/>
<path d="M1492.55 2986.06C1495.09 2984.58 1498.09 2984.14 1500.94 2984.83C1503.8 2985.51 1506.28 2987.27 1507.9 2989.75C1509.51 2992.23 1510.12 2995.24 1509.62 2998.16C1509.11 3001.08 1507.52 3003.7 1505.18 3005.48L1504.05 3006.23L1324.76 3111.02C1322.21 3112.5 1319.21 3112.94 1316.36 3112.26C1313.51 3111.57 1311.02 3109.81 1309.41 3107.33C1307.8 3104.85 1307.18 3101.84 1307.69 3098.92C1308.19 3096 1309.78 3093.38 1312.13 3091.6L1313.25 3090.85L1492.55 2986.06ZM1386.36 2846.46C1391.39 2843.52 1397.33 2842.61 1402.98 2843.92C1408.64 2845.22 1413.6 2848.65 1416.87 2853.5L1417.79 2854.98L1475.3 2955.81C1478.2 2960.9 1479.1 2966.91 1477.81 2972.64C1476.52 2978.37 1473.14 2983.39 1468.34 2986.7L1466.88 2987.62L1327.42 3069.13C1322.4 3072.06 1316.46 3072.97 1310.8 3071.67C1305.15 3070.36 1300.18 3066.94 1296.91 3062.09L1296 3060.6L1238.49 2959.77C1235.59 2954.68 1234.69 2948.67 1235.98 2942.95C1237.27 2937.22 1240.65 2932.19 1245.45 2928.88L1246.91 2927.96L1386.36 2846.46Z" fill="#457CFF"/>
<path d="M1481.12 2995.18C1483.66 2993.7 1486.67 2993.26 1489.52 2993.94C1492.37 2994.63 1494.86 2996.39 1496.47 2998.87C1498.08 3001.35 1498.7 3004.36 1498.19 3007.28C1497.69 3010.2 1496.1 3012.82 1493.75 3014.6L1492.63 3015.35L1313.33 3120.14C1310.79 3121.62 1307.79 3122.06 1304.94 3121.38C1302.08 3120.69 1299.6 3118.93 1297.98 3116.45C1296.37 3113.97 1295.76 3110.96 1296.26 3108.04C1296.77 3105.12 1298.36 3102.5 1300.7 3100.72L1301.83 3099.97L1481.12 2995.18ZM1374.94 2855.58C1379.96 2852.64 1385.9 2851.73 1391.56 2853.04C1397.22 2854.34 1402.18 2857.76 1405.45 2862.62L1406.36 2864.1L1463.87 2964.93C1466.78 2970.02 1467.67 2976.03 1466.38 2981.76C1465.09 2987.49 1461.71 2992.51 1456.92 2995.82L1455.45 2996.74L1316 3078.25C1310.97 3081.18 1305.04 3082.09 1299.38 3080.79C1293.72 3079.48 1288.76 3076.06 1285.49 3071.21L1284.58 3069.72L1227.07 2968.89C1224.16 2963.8 1223.27 2957.79 1224.56 2952.06C1225.85 2946.34 1229.23 2941.31 1234.02 2938L1235.49 2937.08L1374.94 2855.58Z" fill="#ADFFE3"/>
<path d="M2050.78 2812.58L1968.62 2856.18C1968.62 2856.18 1324.72 2835.92 1153.94 2514.06C983.167 2192.2 1327.4 1647.65 1327.4 1647.65L1409.56 1604.05C1409.56 1604.05 1043.89 2163.18 1213.34 2482.54C1382.79 2801.9 2050.78 2812.58 2050.78 2812.58Z" fill="#457CFF"/>
<path d="M2024.14 2826.72L1941.98 2870.31C1941.98 2870.31 1297.44 2848.87 1125.95 2525.67C954.466 2202.46 1298.07 1656.73 1298.07 1656.73L1380.23 1613.14C1380.23 1613.14 1015.2 2173.46 1185.35 2494.15C1355.51 2814.84 2024.14 2826.72 2024.14 2826.72Z" fill="#FF555D"/>
<path d="M2036.35 2820.24L1954.19 2863.83C1954.19 2863.83 1310.28 2843.57 1139.51 2521.71C968.734 2199.85 1312.96 1655.3 1312.96 1655.3L1395.12 1611.71C1395.12 1611.71 1029.46 2170.84 1198.91 2490.2C1368.35 2809.55 2036.35 2820.24 2036.35 2820.24Z" fill="#B66CFF"/>
<path d="M71.4804 2488.69L120.834 2472.82L104.965 2423.47C102.861 2416.93 103.442 2409.81 106.582 2403.7C109.722 2397.58 115.162 2392.96 121.707 2390.86L171.061 2374.99C177.605 2372.89 184.718 2373.47 190.834 2376.61C196.95 2379.75 201.568 2385.19 203.672 2391.73L219.541 2441.09L268.895 2425.22C275.439 2423.11 282.552 2423.69 288.668 2426.83C294.784 2429.97 299.402 2435.41 301.506 2441.96L317.375 2491.31C319.48 2497.86 318.898 2504.97 315.758 2511.09C312.618 2517.2 307.178 2521.82 300.633 2523.92L251.279 2539.79L267.148 2589.15C269.253 2595.69 268.671 2602.8 265.531 2608.92C262.392 2615.04 256.951 2619.65 250.406 2621.76L201.053 2637.63C194.508 2639.73 187.395 2639.15 181.279 2636.01C175.164 2632.87 170.546 2627.43 168.441 2620.88L152.572 2571.53L103.219 2587.4C96.6739 2589.5 89.5613 2588.92 83.4455 2585.78C77.3296 2582.64 72.7116 2577.2 70.6072 2570.66L54.7382 2521.3C52.6338 2514.76 53.2155 2507.65 56.3553 2501.53C59.495 2495.41 64.9357 2490.8 71.4804 2488.69Z" fill="#FF555D"/>
<path d="M90.3671 2483.44L139.721 2467.57L123.852 2418.22C121.747 2411.67 122.329 2404.56 125.469 2398.45C128.609 2392.33 134.049 2387.71 140.594 2385.61L189.947 2369.74C196.492 2367.63 203.605 2368.22 209.721 2371.36C215.836 2374.49 220.454 2379.94 222.559 2386.48L238.428 2435.83L287.782 2419.96C294.326 2417.86 301.439 2418.44 307.555 2421.58C313.67 2424.72 318.288 2430.16 320.393 2436.71L336.262 2486.06C338.366 2492.61 337.785 2499.72 334.645 2505.83C331.505 2511.95 326.064 2516.57 319.52 2518.67L270.166 2534.54L286.035 2583.89C288.139 2590.44 287.558 2597.55 284.418 2603.67C281.278 2609.78 275.838 2614.4 269.293 2616.51L219.939 2632.38C213.395 2634.48 206.282 2633.9 200.166 2630.76C194.05 2627.62 189.432 2622.18 187.328 2615.63L171.459 2566.28L122.105 2582.15C115.561 2584.25 108.448 2583.67 102.332 2580.53C96.2164 2577.39 91.5983 2571.95 89.4939 2565.41L73.6249 2516.05C71.5205 2509.51 72.1022 2502.4 75.242 2496.28C78.3818 2490.16 83.8224 2485.55 90.3671 2483.44Z" fill="#457CFF"/>
<path d="M82.4641 2486.07L131.818 2470.2L115.949 2420.84C113.844 2414.3 114.426 2407.19 117.566 2401.07C120.705 2394.95 126.146 2390.34 132.691 2388.23L182.044 2372.36C188.589 2370.26 195.702 2370.84 201.818 2373.98C207.933 2377.12 212.551 2382.56 214.656 2389.11L230.525 2438.46L279.878 2422.59C286.423 2420.49 293.536 2421.07 299.652 2424.21C305.767 2427.35 310.385 2432.79 312.49 2439.33L328.359 2488.69C330.463 2495.23 329.882 2502.34 326.742 2508.46C323.602 2514.58 318.161 2519.19 311.617 2521.3L262.263 2537.17L278.132 2586.52C280.236 2593.06 279.655 2600.18 276.515 2606.29C273.375 2612.41 267.934 2617.03 261.39 2619.13L212.036 2635C205.492 2637.1 198.379 2636.52 192.263 2633.38C186.147 2630.24 181.529 2624.8 179.425 2618.26L163.556 2568.9L114.202 2584.77C107.658 2586.88 100.545 2586.3 94.4291 2583.16C88.3133 2580.02 83.6952 2574.58 81.5909 2568.03L65.7218 2518.68C63.6174 2512.13 64.1991 2505.02 67.3389 2498.9C70.4787 2492.79 75.9194 2488.17 82.4641 2486.07Z" fill="#B66CFF"/>
<path d="M1016 2744.9C1016 2744.9 1046.56 2761.97 1056.26 2745.18C1065.95 2728.38 1033.81 2714.06 1043.5 2697.27C1053.2 2680.47 1081.68 2701.15 1091.37 2684.36C1101.07 2667.56 1068.92 2653.24 1078.62 2636.45C1088.32 2619.65 1121.31 2632.5 1121.31 2632.5" stroke="#D0C9FF" stroke-width="10" stroke-linecap="round" stroke-linejoin="round"/>
<path d="M81 2891.9C81 2891.9 111.56 2908.97 121.257 2892.18C130.953 2875.38 98.8066 2861.06 108.503 2844.27C118.2 2827.47 146.675 2848.15 156.372 2831.36C166.069 2814.56 133.922 2800.24 143.618 2783.45C153.315 2766.65 186.311 2779.5 186.311 2779.5" stroke="#D0C9FF" stroke-width="10" stroke-linecap="round" stroke-linejoin="round"/>
<path d="M1056.87 3007.11L1086.86 3002.68L1092.07 3032.16L1071.86 3045.03L1051.67 3030.65L1056.87 3007.11Z" stroke="#D0C9FF" stroke-width="10" stroke-linejoin="round"/>
<path d="M406.403 2430.16L418.201 2458.08L390.965 2470.51L373.445 2454.17L382.304 2431.02L406.403 2430.16Z" stroke="#D0C9FF" stroke-width="10" stroke-linejoin="round"/>
<path d="M417.319 625.55C407.816 626.07 399.356 630.159 392.742 635.874L378.899 647.843C373.601 652.424 369.42 658.155 366.676 664.599C363.932 671.043 362.698 678.029 363.067 685.024C365.661 733.31 368.994 771.985 378.396 801.117C388.056 831.016 404.416 851.776 432.955 862.858C452.026 870.261 469.883 856.289 473.337 838.934C476.025 825.354 478.64 811.76 481.18 798.152C482.19 792.733 484.359 787.596 487.54 783.093C490.721 778.591 494.838 774.83 499.609 772.068L564.899 734.373C574.54 728.806 586.16 727.739 596.709 731.451C609.762 736.056 622.84 740.591 635.942 745.054C652.696 750.733 673.734 742.258 676.852 722.044C681.524 691.788 671.726 667.24 650.666 643.931C630.134 621.216 598.307 598.991 557.791 572.609C551.918 568.792 545.251 566.368 538.298 565.522C531.346 564.677 524.292 565.432 517.675 567.729L500.395 573.729C492.135 576.593 484.357 581.879 479.155 589.849C478.124 591.427 477.113 593.019 476.123 594.624C472.367 600.677 467.459 605.665 461.661 609.012L442.669 619.977C436.864 623.329 430.095 625.092 422.978 625.307C421.09 625.365 419.204 625.446 417.319 625.55ZM488.179 676.936C484.5 679.061 480.127 679.636 476.024 678.537C471.92 677.437 468.421 674.752 466.297 671.073C464.173 667.394 463.597 663.022 464.697 658.918C465.797 654.815 468.481 651.316 472.16 649.192C475.84 647.067 480.212 646.492 484.315 647.591C488.419 648.691 491.918 651.376 494.042 655.055C496.166 658.734 496.742 663.106 495.642 667.21C494.543 671.313 491.858 674.812 488.179 676.936Z" fill="#457CFF"/>
<path d="M407.887 640.371C398.385 640.891 389.925 644.98 383.31 650.695L369.467 662.664C364.169 667.245 359.989 672.976 357.245 679.421C354.501 685.865 353.266 692.851 353.636 699.845C356.229 748.131 359.562 786.806 368.965 815.939C378.625 845.837 394.985 866.597 423.524 877.68C442.595 885.082 460.451 871.111 463.905 853.755C466.594 840.175 469.208 826.581 471.749 812.973C472.758 807.554 474.928 802.417 478.108 797.915C481.289 793.412 485.406 789.651 490.177 786.889L555.467 749.194C565.109 743.628 576.728 742.561 587.278 746.273C600.331 750.878 613.408 755.412 626.51 759.875C643.264 765.554 664.303 757.079 667.421 736.866C672.092 706.609 662.294 682.061 641.235 658.753C620.703 636.037 588.876 613.812 548.359 587.431C542.487 583.614 535.819 581.19 528.867 580.344C521.914 579.498 514.86 580.253 508.244 582.551L490.964 588.55C482.703 591.414 474.925 596.7 469.723 604.67C468.692 606.249 467.681 607.84 466.691 609.445C462.935 615.498 458.028 620.486 452.229 623.834L433.238 634.798C427.432 638.15 420.663 639.913 413.546 640.128C411.659 640.187 409.773 640.268 407.887 640.371ZM478.747 691.758C475.068 693.882 470.696 694.457 466.592 693.358C462.488 692.258 458.99 689.574 456.866 685.894C454.741 682.215 454.166 677.843 455.265 673.739C456.365 669.636 459.05 666.137 462.729 664.013C466.408 661.889 470.78 661.313 474.884 662.413C478.987 663.512 482.486 666.197 484.61 669.876C486.734 673.555 487.31 677.928 486.211 682.031C485.111 686.135 482.426 689.633 478.747 691.758Z" fill="#FF555D"/>
<path d="M411.131 632.287C401.628 632.807 393.169 636.896 386.554 642.61L372.711 654.579C367.413 659.16 363.232 664.892 360.488 671.336C357.744 677.78 356.51 684.766 356.879 691.76C359.473 740.047 362.806 778.722 372.208 807.854C381.868 837.753 398.228 858.512 426.767 869.595C445.838 876.998 463.695 863.026 467.149 845.67C469.837 832.091 472.452 818.497 474.992 804.889C476.002 799.47 478.171 794.333 481.352 789.83C484.533 785.328 488.65 781.567 493.421 778.805L558.711 741.109C568.352 735.543 579.972 734.476 590.521 738.188C603.574 742.793 616.652 747.327 629.754 751.79C646.508 757.47 667.546 748.994 670.664 728.781C675.336 698.524 665.538 673.977 644.478 650.668C623.946 627.952 592.119 605.728 551.603 579.346C545.73 575.529 539.063 573.105 532.11 572.259C525.158 571.414 518.104 572.168 511.487 574.466L494.207 580.466C485.947 583.33 478.169 588.616 472.967 596.586C471.936 598.164 470.925 599.756 469.935 601.361C466.179 607.413 461.271 612.401 455.473 615.749L436.481 626.714C430.676 630.066 423.907 631.828 416.79 632.044C414.902 632.102 413.016 632.183 411.131 632.287ZM481.991 683.673C478.312 685.797 473.939 686.373 469.836 685.273C465.732 684.174 462.233 681.489 460.109 677.81C457.985 674.131 457.409 669.759 458.509 665.655C459.609 661.551 462.293 658.053 465.972 655.928C469.652 653.804 474.024 653.229 478.127 654.328C482.231 655.428 485.73 658.112 487.854 661.792C489.978 665.471 490.554 669.843 489.454 673.947C488.355 678.05 485.67 681.549 481.991 683.673Z" fill="#ADFFE3"/>
<path d="M167 0H241C241 0 686 279.477 686 598C686 916.523 241 1196 241 1196H167C167 1196 632.5 914.045 632.5 598C632.5 281.955 167 0 167 0Z" fill="#FF555D"/>
<path d="M191 0H265C265 0 710 280.646 710 600.5C710 920.354 265 1201 265 1201H191C191 1201 656.5 917.867 656.5 600.5C656.5 283.133 191 0 191 0Z" fill="#457CFF"/>
<path d="M180 0H254C254 0 699 279.477 699 598C699 916.523 254 1196 254 1196H180C180 1196 645.5 914.045 645.5 598C645.5 281.955 180 0 180 0Z" fill="#B66CFF"/>
<path d="M1555.38 505.945L1517.12 535.962C1517.12 535.962 1173.95 572.304 1045.03 407.997C916.114 243.69 1033.06 -80.9831 1033.06 -80.9831L1071.32 -111C1071.32 -111 944.776 223.267 1072.69 386.296C1200.6 549.325 1555.38 505.945 1555.38 505.945Z" fill="#FF555D"/>
<path d="M1576.8 499.613L1538.48 529.678C1538.48 529.678 1195.01 566.382 1066.16 402.163C937.313 237.944 1054.68 -86.9358 1054.68 -86.9358L1093 -117C1093 -117 966.018 217.486 1093.86 380.427C1221.71 543.369 1576.8 499.613 1576.8 499.613Z" fill="#457CFF"/>
<path d="M1563.38 499.945L1525.12 529.962C1525.12 529.962 1181.95 566.304 1053.03 401.997C924.114 237.69 1041.06 -86.9831 1041.06 -86.9831L1079.32 -117C1079.32 -117 952.776 217.267 1080.69 380.296C1208.6 543.325 1563.38 499.945 1563.38 499.945Z" fill="#ADFFE3"/>
<path d="M1185.7 439.964L1063.2 372.003C1060.25 370.368 1056.55 371.428 1054.92 374.374L986.955 496.88C985.32 499.826 986.38 503.527 989.326 505.161L1111.83 573.123C1114.78 574.757 1118.48 573.697 1120.11 570.751L1188.07 448.246C1189.71 445.3 1188.65 441.599 1185.7 439.964ZM1087.13 473.68L1040.31 482.749C1039.04 483.001 1038.06 481.655 1038.69 480.524L1044.48 470.087C1044.69 469.705 1045.09 469.423 1045.53 469.34L1072.32 464.132L1062.56 438.647C1062.47 438.441 1062.43 438.218 1062.45 437.996C1062.46 437.773 1062.53 437.557 1062.64 437.364L1068.43 426.927C1069.05 425.796 1070.71 425.909 1071.17 427.122L1088.27 471.632C1088.62 472.525 1088.08 473.507 1087.13 473.68ZM1106.6 518.198C1106.2 518.93 1105.3 519.216 1104.62 518.837L1073.82 501.754C1073.14 501.376 1072.91 500.463 1073.31 499.73L1077.75 491.741C1078.15 491.008 1079.05 490.723 1079.73 491.102L1110.53 508.184C1111.21 508.563 1111.44 509.476 1111.04 510.209L1106.6 518.198Z" fill="#FF555D"/>
<path d="M1195.94 437.917L1073.44 369.955C1070.49 368.32 1066.79 369.38 1065.16 372.326L997.194 494.832C995.56 497.778 996.62 501.479 999.566 503.113L1122.07 571.075C1125.02 572.709 1128.72 571.65 1130.35 568.703L1198.31 446.198C1199.95 443.252 1198.89 439.551 1195.94 437.917ZM1097.37 471.632L1050.55 480.701C1049.28 480.953 1048.3 479.608 1048.93 478.476L1054.72 468.04C1054.93 467.657 1055.33 467.375 1055.77 467.292L1082.56 462.084L1072.8 436.599C1072.71 436.393 1072.67 436.171 1072.69 435.948C1072.7 435.725 1072.77 435.509 1072.88 435.316L1078.67 424.88C1079.29 423.748 1080.95 423.861 1081.41 425.074L1098.51 469.584C1098.86 470.477 1098.32 471.459 1097.37 471.632ZM1116.84 516.15C1116.44 516.883 1115.54 517.168 1114.86 516.789L1084.06 499.707C1083.38 499.328 1083.15 498.415 1083.55 497.682L1087.99 489.693C1088.39 488.96 1089.29 488.675 1089.97 489.054L1120.77 506.137C1121.45 506.515 1121.68 507.428 1121.28 508.161L1116.84 516.15Z" fill="#457CFF"/>
<path d="M1191.85 438.95L1069.34 370.988C1066.4 369.354 1062.69 370.413 1061.06 373.36L993.099 495.865C991.464 498.811 992.524 502.512 995.47 504.146L1117.98 572.108C1120.92 573.743 1124.62 572.683 1126.26 569.737L1194.22 447.231C1195.85 444.285 1194.79 440.584 1191.85 438.95ZM1093.28 472.665L1046.45 481.734C1045.18 481.986 1044.21 480.641 1044.84 479.509L1050.63 469.073C1050.84 468.69 1051.23 468.409 1051.67 468.325L1078.46 463.118L1068.7 437.632C1068.61 437.426 1068.58 437.204 1068.59 436.981C1068.6 436.759 1068.67 436.542 1068.78 436.349L1074.57 425.913C1075.2 424.781 1076.85 424.895 1077.31 426.107L1094.41 470.618C1094.77 471.51 1094.22 472.492 1093.28 472.665ZM1112.75 517.183C1112.34 517.916 1111.44 518.201 1110.76 517.822L1079.97 500.74C1079.28 500.361 1079.05 499.448 1079.46 498.716L1083.89 490.726C1084.3 489.994 1085.19 489.708 1085.88 490.087L1116.67 507.17C1117.35 507.548 1117.59 508.462 1117.18 509.194L1112.75 517.183Z" fill="#B66CFF"/>
<path d="M741 162.904C741 162.904 771.56 179.972 781.257 163.177C790.953 146.382 758.807 132.062 768.503 115.267C778.2 98.4714 806.675 119.151 816.372 102.356C826.069 85.5608 793.922 71.2409 803.618 54.4456C813.315 37.6503 846.311 50.5 846.311 50.5" stroke="#D0C9FF" stroke-width="10" stroke-linecap="round" stroke-linejoin="round"/>
<path d="M1229.41 648.288L1259.39 643.859L1264.6 673.339L1244.4 686.208L1224.2 671.833L1229.41 648.288Z" stroke="#D0C9FF" stroke-width="10" stroke-linejoin="round"/>
<path d="M1182.44 78.832C1189.57 82.5712 1194.77 88.7299 1196.9 95.9534C1199.03 103.177 1197.92 110.873 1193.8 117.35C1189.68 123.826 1182.9 128.552 1174.95 130.487C1166.99 132.423 1158.52 131.41 1151.39 127.67C1144.25 123.931 1139.05 117.773 1136.92 110.549C1134.79 103.326 1135.9 95.6292 1140.02 89.1528C1144.14 82.6764 1150.92 77.9507 1158.87 76.0152C1166.83 74.0796 1175.3 75.0929 1182.44 78.832ZM1256.66 60.7707C1263.79 64.5098 1269 70.6686 1271.13 77.892C1273.26 85.1155 1272.15 92.812 1268.03 99.2883C1263.91 105.765 1257.13 110.49 1249.17 112.426C1241.22 114.362 1232.74 113.348 1225.61 109.609C1218.48 105.87 1213.28 99.7113 1211.15 92.4878C1209.01 85.2643 1210.13 77.5678 1214.25 71.0915C1218.36 64.6151 1225.15 59.8893 1233.1 57.9538C1241.06 56.0183 1249.53 57.0316 1256.66 60.7707ZM1202.32 146.238C1209.46 149.977 1214.66 156.136 1216.79 163.359C1218.92 170.583 1217.81 178.279 1213.69 184.756C1209.57 191.232 1202.79 195.958 1194.84 197.893C1186.88 199.829 1178.41 198.815 1171.27 195.076C1164.14 191.337 1158.94 185.178 1156.81 177.955C1154.68 170.732 1155.79 163.035 1159.91 156.559C1164.03 150.082 1170.81 145.357 1178.76 143.421C1186.72 141.486 1195.19 142.499 1202.32 146.238ZM1276.55 128.177C1283.68 131.916 1288.89 138.074 1291.02 145.298C1293.15 152.521 1292.03 160.218 1287.92 166.694C1283.8 173.171 1277.02 177.896 1269.06 179.832C1261.11 181.767 1252.63 180.754 1245.5 177.015C1238.37 173.276 1233.17 167.117 1231.03 159.894C1228.9 152.67 1230.02 144.974 1234.14 138.497C1238.25 132.021 1245.04 127.295 1252.99 125.36C1260.94 123.424 1269.42 124.437 1276.55 128.177Z" fill="#457CFF"/>
<path d="M1178.11 84.395C1185.24 88.1342 1190.44 94.2929 1192.58 101.516C1194.71 108.74 1193.59 116.436 1189.47 122.913C1185.36 129.389 1178.57 134.115 1170.62 136.05C1162.67 137.986 1154.19 136.973 1147.06 133.233C1139.93 129.494 1134.72 123.336 1132.59 116.112C1130.46 108.889 1131.58 101.192 1135.69 94.7158C1139.81 88.2394 1146.59 83.5137 1154.55 81.5782C1162.5 79.6426 1170.98 80.6559 1178.11 84.395ZM1252.34 66.3337C1259.47 70.0728 1264.67 76.2315 1266.8 83.455C1268.93 90.6785 1267.82 98.375 1263.7 104.851C1259.58 111.328 1252.8 116.053 1244.85 117.989C1236.89 119.925 1228.42 118.911 1221.29 115.172C1214.15 111.433 1208.95 105.274 1206.82 98.0508C1204.69 90.8273 1205.8 83.1308 1209.92 76.6545C1214.04 70.1781 1220.82 65.4523 1228.77 63.5168C1236.73 61.5813 1245.2 62.5945 1252.34 66.3337ZM1198 151.801C1205.13 155.54 1210.33 161.699 1212.47 168.922C1214.6 176.146 1213.48 183.842 1209.36 190.319C1205.25 196.795 1198.46 201.521 1190.51 203.456C1182.56 205.392 1174.08 204.378 1166.95 200.639C1159.82 196.9 1154.61 190.741 1152.48 183.518C1150.35 176.295 1151.47 168.598 1155.58 162.122C1159.7 155.645 1166.48 150.92 1174.44 148.984C1182.39 147.049 1190.87 148.062 1198 151.801ZM1272.23 133.74C1279.36 137.479 1284.56 143.637 1286.69 150.861C1288.82 158.084 1287.71 165.781 1283.59 172.257C1279.47 178.734 1272.69 183.459 1264.74 185.395C1256.78 187.33 1248.31 186.317 1241.17 182.578C1234.04 178.839 1228.84 172.68 1226.71 165.457C1224.58 158.233 1225.69 150.537 1229.81 144.06C1233.93 137.584 1240.71 132.858 1248.66 130.923C1256.62 128.987 1265.09 130 1272.23 133.74Z" fill="#FF3F4D"/>
<path d="M1180.49 81.0383C1187.62 84.7775 1192.82 90.9362 1194.95 98.1597C1197.09 105.383 1195.97 113.08 1191.85 119.556C1187.74 126.032 1180.95 130.758 1173 132.694C1165.04 134.629 1156.57 133.616 1149.44 129.877C1142.31 126.138 1137.1 119.979 1134.97 112.755C1132.84 105.532 1133.95 97.8355 1138.07 91.3591C1142.19 84.8827 1148.97 80.157 1156.93 78.2215C1164.88 76.2859 1173.36 77.2992 1180.49 81.0383ZM1254.71 62.977C1261.85 66.7161 1267.05 72.8749 1269.18 80.0983C1271.31 87.3218 1270.2 95.0183 1266.08 101.495C1261.96 107.971 1255.18 112.697 1247.23 114.632C1239.27 116.568 1230.8 115.555 1223.66 111.815C1216.53 108.076 1211.33 101.918 1209.2 94.6941C1207.07 87.4706 1208.18 79.7741 1212.3 73.2978C1216.42 66.8214 1223.2 62.0956 1231.15 60.1601C1239.11 58.2246 1247.58 59.2379 1254.71 62.977ZM1200.38 148.444C1207.51 152.183 1212.71 158.342 1214.84 165.566C1216.98 172.789 1215.86 180.485 1211.74 186.962C1207.62 193.438 1200.84 198.164 1192.89 200.1C1184.93 202.035 1176.46 201.022 1169.33 197.283C1162.19 193.543 1156.99 187.385 1154.86 180.161C1152.73 172.938 1153.84 165.241 1157.96 158.765C1162.08 152.289 1168.86 147.563 1176.82 145.627C1184.77 143.692 1193.24 144.705 1200.38 148.444ZM1274.6 130.383C1281.74 134.122 1286.94 140.281 1289.07 147.504C1291.2 154.728 1290.09 162.424 1285.97 168.901C1281.85 175.377 1275.07 180.103 1267.11 182.038C1259.16 183.974 1250.69 182.96 1243.55 179.221C1236.42 175.482 1231.22 169.323 1229.09 162.1C1226.95 154.877 1228.07 147.18 1232.19 140.704C1236.31 134.227 1243.09 129.502 1251.04 127.566C1259 125.63 1267.47 126.644 1274.6 130.383Z" fill="#ADFFE3"/>
</g>
<defs>
<clipPath id="clip0_257_130">
<rect width="2232.78" height="3869.75" fill="white" transform="translate(-182 -117)"/>
</clipPath>
</defs>
</svg>
