<svg width="1033" height="875" viewBox="0 0 1033 875" fill="none" xmlns="http://www.w3.org/2000/svg">
<path d="M119.319 603.55C109.816 604.07 101.356 608.159 94.7418 613.874L80.899 625.843C75.6009 630.424 71.4202 636.155 68.6763 642.599C65.9324 649.043 64.698 656.029 65.0674 663.024C67.6607 711.31 70.994 749.985 80.3964 779.117C90.0565 809.016 106.416 829.776 134.955 840.858C154.026 848.261 171.883 834.289 175.337 816.934C178.025 803.354 180.64 789.76 183.18 776.152C184.19 770.733 186.359 765.596 189.54 761.093C192.721 756.591 196.838 752.83 201.609 750.068L266.899 712.373C276.54 706.806 288.16 705.739 298.709 709.451C311.762 714.056 324.84 718.591 337.942 723.054C354.696 728.733 375.734 720.258 378.852 700.044C383.524 669.788 373.726 645.24 352.666 621.931C332.134 599.216 300.307 576.991 259.791 550.609C253.918 546.792 247.251 544.368 240.298 543.522C233.346 542.677 226.292 543.432 219.675 545.729L202.395 551.729C194.135 554.593 186.357 559.879 181.155 567.849C180.124 569.427 179.113 571.019 178.123 572.624C174.367 578.677 169.459 583.665 163.661 587.012L144.669 597.977C138.864 601.329 132.095 603.092 124.978 603.307C123.09 603.365 121.204 603.446 119.319 603.55ZM190.179 654.936C186.5 657.061 182.127 657.636 178.024 656.537C173.92 655.437 170.421 652.752 168.297 649.073C166.173 645.394 165.597 641.022 166.697 636.918C167.797 632.815 170.481 629.316 174.16 627.192C177.84 625.067 182.212 624.492 186.315 625.591C190.419 626.691 193.918 629.376 196.042 633.055C198.166 636.734 198.742 641.106 197.642 645.21C196.543 649.313 193.858 652.812 190.179 654.936Z" fill="#457CFF"/>
<path d="M109.887 618.371C100.385 618.891 91.9249 622.98 85.3102 628.695L71.4674 640.664C66.1693 645.245 61.9885 650.976 59.2447 657.421C56.5008 663.865 55.2663 670.851 55.6357 677.845C58.229 726.131 61.5623 764.806 70.9647 793.939C80.6248 823.837 96.9847 844.597 125.524 855.68C144.595 863.082 162.451 849.111 165.905 831.755C168.594 818.175 171.208 804.581 173.749 790.973C174.758 785.554 176.928 780.417 180.108 775.915C183.289 771.412 187.406 767.651 192.177 764.889L257.467 727.194C267.109 721.628 278.728 720.561 289.278 724.273C302.331 728.878 315.408 733.412 328.51 737.875C345.264 743.554 366.303 735.079 369.421 714.866C374.092 684.609 364.294 660.061 343.235 636.753C322.703 614.037 290.876 591.812 250.359 565.431C244.487 561.614 237.819 559.19 230.867 558.344C223.914 557.498 216.86 558.253 210.244 560.551L192.964 566.55C184.703 569.414 176.925 574.7 171.723 582.67C170.692 584.249 169.681 585.84 168.691 587.445C164.935 593.498 160.028 598.486 154.229 601.834L135.238 612.798C129.432 616.15 122.663 617.913 115.546 618.128C113.659 618.187 111.773 618.268 109.887 618.371ZM180.747 669.758C177.068 671.882 172.696 672.457 168.592 671.358C164.488 670.258 160.99 667.574 158.866 663.894C156.741 660.215 156.166 655.843 157.265 651.739C158.365 647.636 161.05 644.137 164.729 642.013C168.408 639.889 172.78 639.313 176.884 640.413C180.987 641.512 184.486 644.197 186.61 647.876C188.734 651.555 189.31 655.928 188.211 660.031C187.111 664.135 184.426 667.633 180.747 669.758Z" fill="#FF555D"/>
<path d="M113.131 610.287C103.628 610.807 95.1685 614.896 88.5539 620.61L74.711 632.579C69.4129 637.16 65.2322 642.892 62.4883 649.336C59.7444 655.78 58.51 662.766 58.8794 669.76C61.4727 718.047 64.806 756.722 74.2084 785.854C83.8685 815.753 100.228 836.512 128.767 847.595C147.838 854.998 165.695 841.026 169.149 823.67C171.837 810.091 174.452 796.497 176.992 782.889C178.002 777.47 180.171 772.333 183.352 767.83C186.533 763.328 190.65 759.567 195.421 756.805L260.711 719.109C270.352 713.543 281.972 712.476 292.521 716.188C305.574 720.793 318.652 725.327 331.754 729.79C348.508 735.47 369.546 726.994 372.664 706.781C377.336 676.524 367.538 651.977 346.478 628.668C325.946 605.952 294.119 583.728 253.603 557.346C247.73 553.529 241.063 551.105 234.11 550.259C227.158 549.414 220.104 550.168 213.487 552.466L196.207 558.466C187.947 561.33 180.169 566.616 174.967 574.586C173.936 576.164 172.925 577.756 171.935 579.361C168.179 585.413 163.271 590.401 157.473 593.749L138.481 604.714C132.676 608.066 125.907 609.828 118.79 610.044C116.902 610.102 115.016 610.183 113.131 610.287ZM183.991 661.673C180.312 663.797 175.939 664.373 171.836 663.273C167.732 662.174 164.233 659.489 162.109 655.81C159.985 652.131 159.409 647.759 160.509 643.655C161.609 639.551 164.293 636.053 167.972 633.928C171.652 631.804 176.024 631.229 180.127 632.328C184.231 633.428 187.73 636.112 189.854 639.792C191.978 643.471 192.554 647.843 191.454 651.947C190.355 656.05 187.67 659.549 183.991 661.673Z" fill="#ADFFE3"/>
<path d="M887.703 417.964L765.198 350.003C762.252 348.368 758.551 349.428 756.916 352.374L688.955 474.88C687.32 477.826 688.38 481.527 691.326 483.161L813.832 551.123C816.778 552.757 820.479 551.697 822.113 548.751L890.075 426.246C891.709 423.3 890.649 419.599 887.703 417.964ZM789.135 451.68L742.31 460.749C741.038 461.001 740.065 459.655 740.693 458.524L746.482 448.087C746.695 447.705 747.09 447.423 747.528 447.34L774.318 442.132L764.556 416.647C764.47 416.441 764.432 416.218 764.446 415.996C764.46 415.773 764.525 415.557 764.636 415.364L770.426 404.927C771.054 403.796 772.711 403.909 773.17 405.122L790.27 449.632C790.624 450.525 790.079 451.507 789.135 451.68ZM808.604 496.198C808.197 496.93 807.299 497.216 806.616 496.837L775.824 479.754C775.141 479.376 774.908 478.463 775.314 477.73L779.746 469.741C780.153 469.008 781.051 468.723 781.733 469.102L812.526 486.184C813.209 486.563 813.442 487.476 813.036 488.209L808.604 496.198Z" fill="#FF555D"/>
<path d="M897.943 415.917L775.437 347.955C772.491 346.32 768.791 347.38 767.156 350.326L699.194 472.832C697.56 475.778 698.62 479.479 701.566 481.113L824.072 549.075C827.018 550.709 830.718 549.65 832.353 546.703L900.315 424.198C901.949 421.252 900.889 417.551 897.943 415.917ZM799.374 449.632L752.55 458.701C751.278 458.953 750.305 457.608 750.933 456.476L756.722 446.04C756.935 445.657 757.33 445.375 757.768 445.292L784.558 440.084L774.796 414.599C774.71 414.393 774.672 414.171 774.686 413.948C774.7 413.725 774.765 413.509 774.876 413.316L780.666 402.88C781.294 401.748 782.95 401.861 783.41 403.074L800.51 447.584C800.864 448.477 800.319 449.459 799.374 449.632ZM818.843 494.15C818.437 494.883 817.539 495.168 816.856 494.789L786.063 477.707C785.381 477.328 785.147 476.415 785.554 475.682L789.986 467.693C790.392 466.96 791.291 466.675 791.973 467.054L822.766 484.137C823.448 484.515 823.682 485.428 823.276 486.161L818.843 494.15Z" fill="#457CFF"/>
<path d="M893.847 416.95L771.341 348.988C768.395 347.354 764.695 348.413 763.06 351.36L695.099 473.865C693.464 476.811 694.524 480.512 697.47 482.146L819.976 550.108C822.922 551.743 826.622 550.683 828.257 547.737L896.219 425.231C897.853 422.285 896.793 418.584 893.847 416.95ZM795.278 450.665L748.454 459.734C747.182 459.986 746.209 458.641 746.837 457.509L752.626 447.073C752.839 446.69 753.234 446.409 753.672 446.325L780.462 441.118L770.7 415.632C770.614 415.426 770.576 415.204 770.59 414.981C770.604 414.759 770.669 414.542 770.78 414.349L776.57 403.913C777.198 402.781 778.854 402.895 779.314 404.107L796.414 448.618C796.768 449.51 796.223 450.492 795.278 450.665ZM814.747 495.183C814.341 495.916 813.443 496.201 812.76 495.822L781.967 478.74C781.285 478.361 781.051 477.448 781.458 476.716L785.89 468.726C786.296 467.994 787.195 467.708 787.877 468.087L818.67 485.17C819.352 485.548 819.586 486.462 819.18 487.194L814.747 495.183Z" fill="#B66CFF"/>
<path d="M443 140.904C443 140.904 473.56 157.972 483.257 141.177C492.953 124.382 460.807 110.062 470.503 93.2666C480.2 76.4714 508.675 97.1514 518.372 80.3561C528.069 63.5608 495.922 49.2409 505.618 32.4456C515.315 15.6503 548.311 28.5 548.311 28.5" stroke="#D0C9FF" stroke-width="10" stroke-linecap="round" stroke-linejoin="round"/>
<path d="M931.406 626.288L961.392 621.859L966.598 651.339L946.396 664.208L926.201 649.833L931.406 626.288Z" stroke="#D0C9FF" stroke-width="10" stroke-linejoin="round"/>
<path d="M884.436 56.832C891.568 60.5712 896.772 66.7299 898.903 73.9534C901.034 81.1768 899.919 88.8733 895.801 95.3497C891.684 101.826 884.902 106.552 876.947 108.487C868.993 110.423 860.518 109.41 853.386 105.67C846.254 101.931 841.05 95.7726 838.919 88.5491C836.787 81.3257 837.903 73.6292 842.021 67.1528C846.138 60.6764 852.92 55.9507 860.874 54.0152C868.829 52.0796 877.304 53.0929 884.436 56.832ZM958.663 38.7707C965.794 42.5098 970.998 48.6686 973.13 55.892C975.261 63.1155 974.145 70.812 970.028 77.2883C965.91 83.7647 959.128 88.4905 951.174 90.426C943.22 92.3615 934.744 91.3482 927.613 87.6091C920.481 83.87 915.277 77.7113 913.145 70.4878C911.014 63.2643 912.13 55.5678 916.247 49.0915C920.365 42.6151 927.147 37.8893 935.101 35.9538C943.056 34.0183 951.531 35.0316 958.663 38.7707ZM904.325 124.238C911.457 127.977 916.661 134.136 918.792 141.359C920.923 148.583 919.808 156.279 915.69 162.756C911.573 169.232 904.791 173.958 896.836 175.893C888.882 177.829 880.407 176.815 873.275 173.076C866.143 169.337 860.939 163.178 858.808 155.955C856.676 148.732 857.792 141.035 861.91 134.559C866.027 128.082 872.809 123.357 880.763 121.421C888.718 119.486 897.193 120.499 904.325 124.238ZM978.552 106.177C985.683 109.916 990.887 116.074 993.019 123.298C995.15 130.521 994.034 138.218 989.917 144.694C985.799 151.171 979.017 155.896 971.063 157.832C963.109 159.767 954.633 158.754 947.502 155.015C940.37 151.276 935.166 145.117 933.034 137.894C930.903 130.67 932.019 122.974 936.136 116.497C940.254 110.021 947.036 105.295 954.99 103.36C962.945 101.424 971.42 102.437 978.552 106.177Z" fill="#457CFF"/>
<path d="M880.109 62.395C887.241 66.1342 892.445 72.2929 894.576 79.5164C896.708 86.7398 895.592 94.4363 891.474 100.913C887.357 107.389 880.575 112.115 872.621 114.05C864.666 115.986 856.191 114.973 849.059 111.233C841.927 107.494 836.723 101.336 834.592 94.1121C832.461 86.8887 833.576 79.1922 837.694 72.7158C841.811 66.2394 848.593 61.5137 856.548 59.5782C864.502 57.6426 872.978 58.6559 880.109 62.395ZM954.336 44.3337C961.468 48.0728 966.672 54.2315 968.803 61.455C970.934 68.6785 969.819 76.375 965.701 82.8513C961.584 89.3277 954.802 94.0535 946.847 95.989C938.893 97.9245 930.418 96.9112 923.286 93.1721C916.154 89.433 910.95 83.2742 908.819 76.0508C906.687 68.8273 907.803 61.1308 911.921 54.6545C916.038 48.1781 922.82 43.4523 930.775 41.5168C938.729 39.5813 947.204 40.5945 954.336 44.3337ZM899.998 129.801C907.13 133.54 912.334 139.699 914.465 146.922C916.597 154.146 915.481 161.842 911.363 168.319C907.246 174.795 900.464 179.521 892.51 181.456C884.555 183.392 876.08 182.378 868.948 178.639C861.816 174.9 856.612 168.741 854.481 161.518C852.35 154.295 853.465 146.598 857.583 140.122C861.7 133.645 868.482 128.92 876.437 126.984C884.391 125.049 892.867 126.062 899.998 129.801ZM974.225 111.74C981.357 115.479 986.561 121.637 988.692 128.861C990.823 136.084 989.708 143.781 985.59 150.257C981.473 156.734 974.691 161.459 966.736 163.395C958.782 165.33 950.307 164.317 943.175 160.578C936.043 156.839 930.839 150.68 928.708 143.457C926.576 136.233 927.692 128.537 931.81 122.06C935.927 115.584 942.709 110.858 950.664 108.923C958.618 106.987 967.093 108 974.225 111.74Z" fill="#FF3F4D"/>
<path d="M882.488 59.0383C889.619 62.7775 894.823 68.9362 896.955 76.1597C899.086 83.3831 897.97 91.0796 893.853 97.556C889.735 104.032 882.953 108.758 874.999 110.694C867.045 112.629 858.569 111.616 851.438 107.877C844.306 104.138 839.102 97.9789 836.97 90.7554C834.839 83.532 835.955 75.8355 840.072 69.3591C844.19 62.8827 850.972 58.157 858.926 56.2215C866.881 54.2859 875.356 55.2992 882.488 59.0383ZM956.714 40.977C963.846 44.7161 969.05 50.8749 971.182 58.0983C973.313 65.3218 972.197 73.0183 968.08 79.4946C963.962 85.971 957.18 90.6968 949.226 92.6323C941.271 94.5678 932.796 93.5545 925.664 89.8154C918.533 86.0763 913.329 79.9176 911.197 72.6941C909.066 65.4706 910.182 57.7741 914.299 51.2978C918.417 44.8214 925.199 40.0956 933.153 38.1601C941.107 36.2246 949.583 37.2379 956.714 40.977ZM902.377 126.444C909.508 130.183 914.712 136.342 916.844 143.566C918.975 150.789 917.859 158.485 913.742 164.962C909.624 171.438 902.842 176.164 894.888 178.1C886.934 180.035 878.458 179.022 871.327 175.283C864.195 171.543 858.991 165.385 856.859 158.161C854.728 150.938 855.844 143.241 859.961 136.765C864.079 130.289 870.861 125.563 878.815 123.627C886.77 121.692 895.245 122.705 902.377 126.444ZM976.603 108.383C983.735 112.122 988.939 118.281 991.071 125.504C993.202 132.728 992.086 140.424 987.969 146.901C983.851 153.377 977.069 158.103 969.115 160.038C961.16 161.974 952.685 160.96 945.553 157.221C938.422 153.482 933.218 147.323 931.086 140.1C928.955 132.877 930.071 125.18 934.188 118.704C938.306 112.227 945.088 107.502 953.042 105.566C960.996 103.63 969.472 104.644 976.603 108.383Z" fill="#ADFFE3"/>
</svg>
