<svg width="1273" height="1201" viewBox="0 0 1273 1201" fill="none" xmlns="http://www.w3.org/2000/svg">
<path d="M0 0H74C74 0 519 279.477 519 598C519 916.523 74 1196 74 1196H0C0 1196 465.5 914.045 465.5 598C465.5 281.955 0 0 0 0Z" fill="#FF555D"/>
<path d="M24 0H98C98 0 543 280.646 543 600.5C543 920.354 98 1201 98 1201H24C24 1201 489.5 917.867 489.5 600.5C489.5 283.133 24 0 24 0Z" fill="#457CFF"/>
<path d="M13 0H87C87 0 532 279.477 532 598C532 916.523 87 1196 87 1196H13C13 1196 478.5 914.045 478.5 598C478.5 281.955 13 0 13 0Z" fill="#B66CFF"/>
<path d="M1388.38 505.945L1350.12 535.962C1350.12 535.962 1006.95 572.304 878.031 407.997C749.114 243.69 866.06 -80.9831 866.06 -80.9831L904.317 -111C904.317 -111 777.776 223.267 905.69 386.296C1033.6 549.325 1388.38 505.945 1388.38 505.945Z" fill="#FF555D"/>
<path d="M1409.8 499.613L1371.48 529.678C1371.48 529.678 1028.01 566.382 899.161 402.163C770.313 237.944 887.683 -86.9358 887.683 -86.9358L926 -117C926 -117 799.018 217.486 926.864 380.427C1054.71 543.369 1409.8 499.613 1409.8 499.613Z" fill="#457CFF"/>
<path d="M1396.38 499.945L1358.12 529.962C1358.12 529.962 1014.95 566.304 886.031 401.997C757.114 237.69 874.06 -86.9831 874.06 -86.9831L912.317 -117C912.317 -117 785.776 217.267 913.69 380.296C1041.6 543.325 1396.38 499.945 1396.38 499.945Z" fill="#ADFFE3"/>
</svg>
