<svg width="1440" height="2368" viewBox="0 0 1440 2368" fill="none" xmlns="http://www.w3.org/2000/svg">
<path d="M1851.02 2465L1777.16 2465C1777.16 2465 1332.98 2284.89 1332.98 2079.61C1332.98 1874.34 1777.16 1694.22 1777.16 1694.22L1851.02 1694.22C1851.02 1694.22 1386.38 1875.93 1386.38 2079.61C1386.38 2283.29 1851.02 2465 1851.02 2465Z" fill="#BD00FF"/>
<path d="M62.2949 1194.62L9.26184 1172.77C7.98645 1172.25 6.53422 1172.84 6.01209 1174.09L-15.699 1226.26C-16.2211 1227.51 -15.6126 1228.95 -14.3372 1229.48L38.6959 1251.33C39.9713 1251.85 41.4235 1251.26 41.9456 1250.01L63.6567 1197.84C64.1789 1196.58 63.5703 1195.14 62.2949 1194.62ZM23.8782 1212.51L5.29417 1218.23C4.78969 1218.38 4.32959 1217.89 4.53018 1217.41L6.37975 1212.96C6.4476 1212.8 6.59471 1212.67 6.76866 1212.61L17.4002 1209.34L12.2082 1199.54C12.1634 1199.47 12.1375 1199.38 12.1325 1199.29C12.1274 1199.2 12.1434 1199.11 12.1792 1199.03L14.0288 1194.58C14.2294 1194.1 14.9078 1194.07 15.1527 1194.54L24.241 1211.64C24.4276 1211.98 24.2536 1212.4 23.8782 1212.51ZM33.9289 1229.52C33.7991 1229.83 33.448 1229.98 33.1525 1229.86L19.8222 1224.37C19.5268 1224.25 19.388 1223.89 19.5178 1223.58L20.9337 1220.18C21.0635 1219.87 21.4147 1219.71 21.7101 1219.83L35.0405 1225.32C35.3359 1225.45 35.4747 1225.8 35.3449 1226.11L33.9289 1229.52Z" fill="#BD00FF"/>
<path d="M-250.163 1418.82L-202.234 1432.1C-202.234 1432.1 84.0192 1646.4 81.7773 1799.62C79.5355 1952.83 -210.652 2007.39 -210.652 2007.39L-258.581 1994.11C-258.581 1994.11 44.9017 1942.04 47.1262 1790.01C49.3506 1637.99 -250.163 1418.82 -250.163 1418.82Z" fill="#00FF79"/>
<path d="M1934.61 216.915L1885.99 272.699C1885.99 272.699 1382.92 424.532 1142.8 215.247C902.68 5.96282 984.383 -513.13 984.383 -513.13L1033 -568.915C1033 -568.915 939.7 -32.7404 1177.95 174.917C1416.2 382.574 1934.61 216.915 1934.61 216.915Z" fill="#BD00FF"/>
<path d="M1168.64 87.2256C1163.47 87.4957 1158.86 89.6187 1155.25 92.586L1147.71 98.8006C1144.82 101.179 1142.54 104.155 1141.05 107.501C1139.55 110.847 1138.88 114.475 1139.08 118.106C1140.5 143.178 1142.31 163.259 1147.44 178.385C1152.7 193.91 1161.61 204.688 1177.16 210.443C1187.56 214.287 1197.29 207.032 1199.17 198.021C1200.63 190.97 1202.06 183.911 1203.44 176.846C1203.99 174.032 1205.17 171.364 1206.91 169.027C1208.64 166.689 1210.88 164.736 1213.48 163.302L1249.06 143.73C1254.31 140.839 1260.65 140.285 1266.39 142.213C1273.51 144.604 1280.63 146.958 1287.77 149.275C1296.9 152.224 1308.37 147.824 1310.06 137.328C1312.61 121.618 1307.27 108.872 1295.8 96.7698C1284.61 84.9751 1267.27 73.4356 1245.19 59.7373C1241.99 57.7554 1238.35 56.4968 1234.57 56.0577C1230.78 55.6185 1226.93 56.0105 1223.33 57.2036L1213.91 60.3188C1209.41 61.8059 1205.17 64.5505 1202.34 68.6886C1201.78 69.5082 1201.23 70.3347 1200.69 71.1679C1198.64 74.3107 1195.97 76.9006 1192.81 78.6389L1182.46 84.332C1179.29 86.0724 1175.61 86.9877 1171.73 87.0995C1170.7 87.1298 1169.67 87.1718 1168.64 87.2256ZM1207.26 113.907C1205.25 115.01 1202.87 115.309 1200.63 114.738C1198.4 114.167 1196.49 112.773 1195.33 110.863C1194.18 108.952 1193.86 106.682 1194.46 104.551C1195.06 102.421 1196.52 100.604 1198.53 99.5011C1200.53 98.3982 1202.92 98.0993 1205.15 98.6702C1207.39 99.2411 1209.29 100.635 1210.45 102.545C1211.61 104.456 1211.92 106.726 1211.32 108.857C1210.72 110.987 1209.26 112.804 1207.26 113.907Z" fill="#00FF79"/>
<path d="M87.345 246.48C84.2118 244.453 82.0562 241.38 81.3522 237.937C80.6483 234.494 81.4537 230.962 83.5914 228.118C85.729 225.275 89.0237 223.353 92.7507 222.775C96.4777 222.198 100.332 223.012 103.465 225.038C106.598 227.064 108.754 230.137 109.458 233.58C110.162 237.024 109.356 240.556 107.219 243.399C105.081 246.242 101.786 248.164 98.0592 248.742C94.3322 249.32 90.4782 248.506 87.345 246.48ZM52.5663 251.87C49.4332 249.844 47.2775 246.771 46.5736 243.328C45.8696 239.884 46.675 236.352 48.8127 233.509C50.9503 230.666 54.245 228.744 57.972 228.166C61.699 227.588 65.553 228.402 68.6862 230.429C71.8194 232.455 73.975 235.528 74.679 238.971C75.3829 242.415 74.5775 245.947 72.4399 248.79C70.3022 251.633 67.0075 253.555 63.2805 254.133C59.5535 254.711 55.6995 253.897 52.5663 251.87ZM80.7761 214.347C77.643 212.321 75.4873 209.248 74.7833 205.805C74.0794 202.361 74.8848 198.83 77.0225 195.986C79.1601 193.143 82.4548 191.221 86.1818 190.643C89.9088 190.066 93.7628 190.879 96.896 192.906C100.029 194.932 102.185 198.005 102.889 201.448C103.593 204.892 102.787 208.424 100.65 211.267C98.512 214.11 95.2173 216.032 91.4903 216.61C87.7633 217.188 83.9093 216.374 80.7761 214.347ZM45.9974 219.738C42.8643 217.712 40.7086 214.639 40.0047 211.196C39.3007 207.752 40.1061 204.22 42.2438 201.377C44.3814 198.534 47.6761 196.612 51.4031 196.034C55.1301 195.456 58.9841 196.27 62.1173 198.297C65.2505 200.323 67.4061 203.396 68.1101 206.839C68.814 210.283 68.0086 213.814 65.871 216.658C63.7333 219.501 60.4386 221.423 56.7116 222.001C52.9846 222.578 49.1306 221.765 45.9974 219.738Z" fill="#457CFF"/>
<path d="M89.5437 244.069C86.4106 242.043 84.2549 238.97 83.551 235.527C82.847 232.083 83.6525 228.551 85.7901 225.708C87.9277 222.865 91.2224 220.943 94.9494 220.365C98.6765 219.787 102.53 220.601 105.664 222.628C108.797 224.654 110.952 227.727 111.656 231.17C112.36 234.614 111.555 238.145 109.417 240.989C107.28 243.832 103.985 245.754 100.258 246.332C96.5309 246.909 92.6769 246.096 89.5437 244.069ZM54.7651 249.46C51.6319 247.434 49.4762 244.361 48.7723 240.917C48.0683 237.474 48.8738 233.942 51.0114 231.099C53.149 228.255 56.4437 226.334 60.1708 225.756C63.8978 225.178 67.7518 225.992 70.8849 228.018C74.0181 230.045 76.1738 233.118 76.8777 236.561C77.5817 240.004 76.7762 243.536 74.6386 246.38C72.501 249.223 69.2062 251.145 65.4792 251.723C61.7522 252.3 57.8982 251.486 54.7651 249.46ZM82.9748 211.937C79.8417 209.911 77.686 206.838 76.9821 203.394C76.2781 199.951 77.0836 196.419 79.2212 193.576C81.3588 190.732 84.6535 188.811 88.3805 188.233C92.1076 187.655 95.9616 188.469 99.0947 190.495C102.228 192.522 104.384 195.595 105.087 199.038C105.791 202.481 104.986 206.013 102.848 208.857C100.711 211.7 97.416 213.622 93.689 214.2C89.962 214.777 86.108 213.963 82.9748 211.937ZM48.1962 217.328C45.063 215.302 42.9073 212.229 42.2034 208.785C41.4994 205.342 42.3049 201.81 44.4425 198.967C46.5801 196.123 49.8749 194.201 53.6019 193.624C57.3289 193.046 61.1829 193.86 64.316 195.886C67.4492 197.913 69.6049 200.985 70.3088 204.429C71.0128 207.872 70.2073 211.404 68.0697 214.247C65.9321 217.091 62.6373 219.013 58.9103 219.59C55.1833 220.168 51.3293 219.354 48.1962 217.328Z" fill="#FF3F4D"/>
<path d="M88.324 245.533C85.1909 243.507 83.0352 240.434 82.3312 236.99C81.6273 233.547 82.4327 230.015 84.5704 227.172C86.708 224.328 90.0027 222.406 93.7297 221.829C97.4567 221.251 101.311 222.065 104.444 224.091C107.577 226.118 109.733 229.19 110.437 232.634C111.141 236.077 110.335 239.609 108.198 242.452C106.06 245.296 102.765 247.218 99.0382 247.795C95.3112 248.373 91.4572 247.559 88.324 245.533ZM53.5453 250.924C50.4122 248.897 48.2565 245.824 47.5526 242.381C46.8486 238.938 47.654 235.406 49.7917 232.562C51.9293 229.719 55.224 227.797 58.951 227.22C62.678 226.642 66.532 227.456 69.6652 229.482C72.7984 231.508 74.954 234.581 75.658 238.025C76.3619 241.468 75.5565 245 73.4189 247.843C71.2812 250.687 67.9865 252.609 64.2595 253.186C60.5325 253.764 56.6785 252.95 53.5453 250.924ZM81.7551 213.401C78.622 211.374 76.4663 208.302 75.7623 204.858C75.0584 201.415 75.8638 197.883 78.0015 195.04C80.1391 192.196 83.4338 190.274 87.1608 189.697C90.8878 189.119 94.7418 189.933 97.875 191.959C101.008 193.985 103.164 197.058 103.868 200.502C104.572 203.945 103.766 207.477 101.629 210.32C99.491 213.164 96.1963 215.086 92.4693 215.663C88.7423 216.241 84.8883 215.427 81.7551 213.401ZM46.9764 218.792C43.8433 216.765 41.6876 213.692 40.9837 210.249C40.2797 206.806 41.0851 203.274 43.2228 200.43C45.3604 197.587 48.6551 195.665 52.3821 195.087C56.1092 194.51 59.9632 195.324 63.0963 197.35C66.2295 199.376 68.3851 202.449 69.0891 205.893C69.793 209.336 68.9876 212.868 66.85 215.711C64.7123 218.554 61.4176 220.476 57.6906 221.054C53.9636 221.632 50.1096 220.818 46.9764 218.792Z" fill="#BD00FF"/>
<path d="M1436.82 1657.7C1437.85 1657.14 1439.07 1656.97 1440.23 1657.23C1441.38 1657.49 1442.39 1658.15 1443.05 1659.09C1443.7 1660.02 1443.95 1661.16 1443.74 1662.26C1443.54 1663.36 1442.9 1664.35 1441.94 1665.02L1441.49 1665.31L1368.77 1704.84C1367.74 1705.4 1366.52 1705.57 1365.37 1705.31C1364.21 1705.05 1363.2 1704.39 1362.55 1703.45C1361.9 1702.51 1361.65 1701.38 1361.85 1700.28C1362.06 1699.17 1362.7 1698.19 1363.65 1697.52L1364.11 1697.23L1436.82 1657.7ZM1393.76 1605.03C1395.8 1603.92 1398.2 1603.58 1400.5 1604.07C1402.79 1604.56 1404.81 1605.85 1406.13 1607.68L1406.5 1608.24L1429.83 1646.29C1431 1648.2 1431.37 1650.47 1430.84 1652.63C1430.32 1654.79 1428.95 1656.69 1427 1657.94L1426.41 1658.29L1369.86 1689.04C1367.82 1690.14 1365.41 1690.49 1363.11 1689.99C1360.82 1689.5 1358.81 1688.21 1357.48 1686.38L1357.11 1685.82L1333.79 1647.78C1332.61 1645.86 1332.25 1643.59 1332.77 1641.43C1333.29 1639.27 1334.66 1637.37 1336.61 1636.12L1337.2 1635.78L1393.76 1605.03Z" fill="#00FF79"/>
<path d="M1379.57 940.96L1394.98 935.82L1390.03 919.834C1389.37 917.714 1389.55 915.41 1390.53 913.429C1391.51 911.448 1393.21 909.952 1395.26 909.271L1410.67 904.131C1412.72 903.449 1414.94 903.637 1416.85 904.654C1418.76 905.671 1420.2 907.434 1420.86 909.554L1425.81 925.539L1441.23 920.399C1443.27 919.718 1445.49 919.906 1447.4 920.923C1449.31 921.94 1450.75 923.702 1451.41 925.822L1456.37 941.808C1457.02 943.928 1456.84 946.232 1455.86 948.213C1454.88 950.194 1453.18 951.69 1451.14 952.371L1435.72 957.511L1440.68 973.497C1441.34 975.617 1441.16 977.921 1440.18 979.902C1439.2 981.883 1437.5 983.379 1435.45 984.06L1420.04 989.201C1417.99 989.882 1415.77 989.694 1413.86 988.677C1411.95 987.66 1410.51 985.897 1409.85 983.778L1404.9 967.792L1389.48 972.932C1387.44 973.613 1385.22 973.425 1383.31 972.408C1381.4 971.391 1379.96 969.629 1379.3 967.509L1374.34 951.523C1373.69 949.403 1373.87 947.099 1374.85 945.118C1375.83 943.137 1377.53 941.641 1379.57 940.96Z" fill="#BD00FF"/>
</svg>
