<svg width="1440" height="2465" viewBox="0 0 1440 2465" fill="none" xmlns="http://www.w3.org/2000/svg">
<g clip-path="url(#clip0_257_127)">
<g clip-path="url(#clip1_257_127)">
<path d="M1188.52 1311.52C1189.65 1310.87 1190.99 1310.68 1192.26 1310.98C1193.53 1311.28 1194.64 1312.06 1195.36 1313.15C1196.08 1314.24 1196.35 1315.57 1196.13 1316.86C1195.9 1318.15 1195.2 1319.3 1194.15 1320.09L1193.65 1320.42L1113.73 1366.64C1112.6 1367.29 1111.26 1367.49 1109.99 1367.19C1108.72 1366.89 1107.61 1366.11 1106.89 1365.01C1106.17 1363.92 1105.9 1362.59 1106.13 1361.31C1106.35 1360.02 1107.06 1358.86 1108.11 1358.08L1108.61 1357.75L1188.52 1311.52ZM1141.19 1249.94C1143.43 1248.65 1146.08 1248.25 1148.6 1248.82C1151.12 1249.4 1153.33 1250.91 1154.79 1253.05L1155.2 1253.7L1180.83 1298.18C1182.13 1300.42 1182.52 1303.08 1181.95 1305.6C1181.38 1308.13 1179.87 1310.34 1177.73 1311.8L1177.08 1312.21L1114.92 1348.16C1112.68 1349.46 1110.04 1349.86 1107.52 1349.28C1104.99 1348.71 1102.78 1347.2 1101.32 1345.06L1100.92 1344.4L1075.28 1299.93C1073.99 1297.68 1073.59 1295.03 1074.17 1292.5C1074.74 1289.98 1076.25 1287.76 1078.38 1286.3L1079.04 1285.89L1141.19 1249.94Z" fill="#FF555D"/>
<path d="M1197.01 1303.87C1198.14 1303.22 1199.48 1303.02 1200.75 1303.33C1202.02 1303.63 1203.13 1304.41 1203.85 1305.5C1204.57 1306.59 1204.84 1307.92 1204.62 1309.21C1204.39 1310.5 1203.68 1311.65 1202.64 1312.44L1202.13 1312.77L1122.22 1358.99C1121.09 1359.64 1119.75 1359.84 1118.48 1359.54C1117.21 1359.23 1116.1 1358.46 1115.38 1357.36C1114.66 1356.27 1114.39 1354.94 1114.61 1353.65C1114.84 1352.36 1115.55 1351.21 1116.59 1350.43L1117.09 1350.09L1197.01 1303.87ZM1149.68 1242.29C1151.92 1241 1154.57 1240.6 1157.09 1241.17C1159.61 1241.75 1161.82 1243.26 1163.28 1245.4L1163.69 1246.05L1189.32 1290.53C1190.61 1292.77 1191.01 1295.42 1190.44 1297.95C1189.86 1300.48 1188.35 1302.69 1186.22 1304.15L1185.56 1304.56L1123.41 1340.51C1121.17 1341.81 1118.52 1342.21 1116 1341.63C1113.48 1341.06 1111.27 1339.55 1109.81 1337.41L1109.4 1336.75L1083.77 1292.27C1082.48 1290.03 1082.08 1287.38 1082.65 1284.85C1083.23 1282.33 1084.73 1280.11 1086.87 1278.65L1087.52 1278.24L1149.68 1242.29Z" fill="#15AEFF"/>
<path d="M1191.91 1307.9C1193.05 1307.24 1194.39 1307.05 1195.66 1307.35C1196.93 1307.65 1198.04 1308.43 1198.75 1309.52C1199.47 1310.62 1199.75 1311.94 1199.52 1313.23C1199.3 1314.52 1198.59 1315.68 1197.54 1316.46L1197.04 1316.79L1117.13 1363.01C1116 1363.67 1114.66 1363.86 1113.39 1363.56C1112.11 1363.26 1111.01 1362.48 1110.29 1361.39C1109.57 1360.29 1109.29 1358.97 1109.52 1357.68C1109.74 1356.39 1110.45 1355.23 1111.5 1354.45L1112 1354.12L1191.91 1307.9ZM1144.59 1246.32C1146.83 1245.02 1149.47 1244.62 1151.99 1245.2C1154.52 1245.77 1156.73 1247.28 1158.19 1249.42L1158.59 1250.08L1184.23 1294.55C1185.52 1296.8 1185.92 1299.45 1185.34 1301.97C1184.77 1304.5 1183.26 1306.72 1181.13 1308.18L1180.47 1308.58L1118.32 1344.53C1116.08 1345.83 1113.43 1346.23 1110.91 1345.65C1108.39 1345.08 1106.18 1343.57 1104.72 1341.43L1104.31 1340.77L1078.68 1296.3C1077.38 1294.05 1076.99 1291.4 1077.56 1288.88C1078.13 1286.35 1079.64 1284.13 1081.78 1282.67L1082.43 1282.27L1144.59 1246.32Z" fill="#ADFFE3"/>
<path d="M1964.15 247.114L1915.53 302.899C1915.53 302.899 1412.46 454.732 1172.34 245.447C932.222 36.1625 1013.92 -482.93 1013.92 -482.93L1062.55 -538.715C1062.55 -538.715 969.242 -2.54065 1207.49 205.116C1445.74 412.773 1964.15 247.114 1964.15 247.114Z" fill="#FF555D"/>
<path d="M1948.38 265.207L1899.76 320.991C1899.76 320.991 1395.81 472.056 1154.69 261.897C913.564 51.7372 994.386 -468.123 994.386 -468.123L1043.01 -523.908C1043.01 -523.908 950.592 13.0409 1189.84 221.566C1429.08 430.091 1948.38 265.207 1948.38 265.207Z" fill="#15AEFF"/>
<path d="M1955.61 256.914L1906.99 312.699C1906.99 312.699 1403.92 464.532 1163.8 255.247C923.68 45.9623 1005.38 -473.13 1005.38 -473.13L1054 -528.915C1054 -528.915 960.7 7.25915 1198.95 214.916C1437.2 422.573 1955.61 256.914 1955.61 256.914Z" fill="#B66CFF"/>
<path d="M1913 2570L1839.14 2570C1839.14 2570 1394.96 2389.89 1394.96 2184.61C1394.96 1979.34 1839.14 1799.22 1839.14 1799.22L1913 1799.22C1913 1799.22 1448.36 1980.93 1448.36 2184.61C1448.36 2388.29 1913 2570 1913 2570Z" fill="#FF555D"/>
<path d="M1889.04 2570L1815.18 2570C1815.18 2570 1371 2389.13 1371 2183C1371 1976.87 1815.18 1796 1815.18 1796L1889.04 1796C1889.04 1796 1424.4 1978.47 1424.4 2183C1424.4 2387.53 1889.04 2570 1889.04 2570Z" fill="#15AEFF"/>
<path d="M1900.02 2570L1826.16 2570C1826.16 2570 1381.98 2389.89 1381.98 2184.61C1381.98 1979.34 1826.16 1799.22 1826.16 1799.22L1900.02 1799.22C1900.02 1799.22 1435.38 1980.93 1435.38 2184.61C1435.38 2388.29 1900.02 2570 1900.02 2570Z" fill="#B66CFF"/>
<path d="M78.8496 906.299L25.8165 884.452C24.5411 883.926 23.0889 884.516 22.5668 885.77L0.855688 937.94C0.333561 939.195 0.942127 940.633 2.21751 941.158L55.2506 963.006C56.526 963.531 57.9782 962.942 58.5003 961.687L80.2114 909.517C80.7335 908.263 80.125 906.825 78.8496 906.299ZM40.4329 924.194L21.8489 929.907C21.3444 930.064 20.8843 929.567 21.0849 929.085L22.9344 924.641C23.0023 924.478 23.1494 924.348 23.3233 924.295L33.9549 921.019L28.7629 911.224C28.7181 911.145 28.6922 911.057 28.6871 910.967C28.6821 910.878 28.6981 910.788 28.7339 910.705L30.5835 906.261C30.7841 905.779 31.4625 905.751 31.7073 906.218L40.7957 923.322C40.9823 923.664 40.8083 924.083 40.4329 924.194ZM50.4836 941.196C50.3538 941.508 50.0027 941.663 49.7072 941.541L36.3769 936.049C36.0815 935.928 35.9427 935.572 36.0725 935.26L37.4884 931.857C37.6182 931.545 37.9694 931.391 38.2648 931.513L51.5951 937.004C51.8906 937.126 52.0294 937.482 51.8996 937.794L50.4836 941.196Z" fill="#FF555D"/>
<path d="M82.9106 905.024L29.8776 883.176C28.6022 882.651 27.1499 883.24 26.6278 884.495L4.91672 936.665C4.3946 937.919 5.00316 939.358 6.27855 939.883L59.3116 961.73C60.587 962.256 62.0392 961.666 62.5614 960.412L84.2724 908.242C84.7946 906.987 84.186 905.549 82.9106 905.024ZM44.4939 922.918L25.9099 928.631C25.4054 928.789 24.9453 928.292 25.1459 927.81L26.9955 923.366C27.0633 923.203 27.2104 923.072 27.3844 923.019L38.0159 919.743L32.824 909.948C32.7791 909.87 32.7532 909.782 32.7482 909.692C32.7431 909.602 32.7591 909.513 32.7949 909.43L34.6445 904.986C34.8451 904.504 35.5235 904.476 35.7684 904.942L44.8567 922.046C45.0434 922.389 44.8693 922.807 44.4939 922.918ZM54.5447 939.921C54.4149 940.233 54.0637 940.387 53.7683 940.265L40.4379 934.774C40.1425 934.652 40.0037 934.296 40.1335 933.984L41.5495 930.582C41.6792 930.27 42.0304 930.116 42.3259 930.237L55.6562 935.729C55.9516 935.851 56.0904 936.207 55.9606 936.519L54.5447 939.921Z" fill="#457CFF"/>
<path d="M81.2964 905.62L28.2633 883.773C26.9879 883.247 25.5357 883.836 25.0136 885.091L3.30247 937.261C2.78034 938.516 3.3889 939.954 4.66429 940.479L57.6974 962.326C58.9727 962.852 60.425 962.263 60.9471 961.008L82.6582 908.838C83.1803 907.583 82.5718 906.145 81.2964 905.62ZM42.8796 923.515L24.2956 929.227C23.7912 929.385 23.3311 928.888 23.5316 928.406L25.3812 923.962C25.4491 923.799 25.5962 923.668 25.7701 923.616L36.4016 920.339L31.2097 910.545C31.1649 910.466 31.139 910.378 31.1339 910.288C31.1289 910.198 31.1449 910.109 31.1807 910.026L33.0302 905.582C33.2308 905.1 33.9092 905.072 34.1541 905.538L43.2425 922.643C43.4291 922.985 43.2551 923.403 42.8796 923.515ZM52.9304 940.517C52.8006 940.829 52.4494 940.983 52.154 940.862L38.8237 935.37C38.5282 935.248 38.3895 934.892 38.5193 934.58L39.9352 931.178C40.065 930.866 40.4162 930.712 40.7116 930.834L54.0419 936.325C54.3374 936.447 54.4761 936.803 54.3463 937.115L52.9304 940.517Z" fill="#ADFFE3"/>
<path d="M-219.311 1461.71L-171.382 1474.99C-171.382 1474.99 114.871 1689.29 112.629 1842.51C110.387 1995.72 -179.8 2050.28 -179.8 2050.28L-227.729 2037C-227.729 2037 75.7533 1984.93 77.9777 1832.9C80.2022 1680.88 -219.311 1461.71 -219.311 1461.71Z" fill="#FF555D"/>
<path d="M-239.687 1449.99L-191.682 1463.3C-191.682 1463.3 95.0259 1677.65 92.7852 1830.78C90.5445 1983.91 -200.096 2038.28 -200.096 2038.28L-248.1 2024.98C-248.1 2024.98 55.8562 1973.1 58.0794 1821.16C60.3027 1669.22 -239.687 1449.99 -239.687 1449.99Z" fill="#15AEFF"/>
<path d="M-229.163 1458.82L-181.234 1472.1C-181.234 1472.1 105.019 1686.4 102.777 1839.62C100.535 1992.83 -189.652 2047.39 -189.652 2047.39L-237.581 2034.11C-237.581 2034.11 65.9017 1982.04 68.1262 1830.01C70.3506 1677.99 -229.163 1458.82 -229.163 1458.82Z" fill="#ADFFE3"/>
<path d="M921.653 57.809C917.29 58.061 913.406 60.042 910.369 62.8107L904.014 68.6095C901.581 70.8289 899.662 73.6057 898.402 76.7278C897.142 79.8498 896.575 83.2345 896.745 86.623C897.935 110.017 899.466 128.754 903.783 142.868C908.218 157.354 915.729 167.411 928.833 172.781C937.589 176.367 945.787 169.598 947.373 161.19C948.607 154.611 949.808 148.025 950.974 141.432C951.438 138.806 952.434 136.317 953.894 134.136C955.355 131.955 957.245 130.133 959.435 128.795L989.412 110.532C993.839 107.835 999.173 107.318 1004.02 109.116C1010.01 111.348 1016.01 113.544 1022.03 115.707C1029.72 118.458 1039.38 114.352 1040.81 104.559C1042.96 89.9 1038.46 78.0071 1028.79 66.7145C1019.36 55.7091 1004.75 44.9418 986.149 32.1602C983.452 30.311 980.391 29.1366 977.199 28.7268C974.007 28.317 970.768 28.6828 967.73 29.796L959.796 32.7028C956.004 34.0904 952.433 36.6513 950.044 40.5125C949.571 41.2772 949.107 42.0484 948.652 42.8259C946.928 45.7583 944.674 48.1749 942.012 49.7969L933.293 55.1091C930.627 56.733 927.519 57.587 924.251 57.6914C923.385 57.7196 922.519 57.7588 921.653 57.809ZM954.187 82.7049C952.498 83.734 950.491 84.0129 948.607 83.4802C946.723 82.9475 945.116 81.6468 944.141 79.8643C943.166 78.0818 942.901 75.9635 943.406 73.9754C943.911 71.9873 945.144 70.2922 946.833 69.2631C948.522 68.2339 950.53 67.9551 952.414 68.4878C954.298 69.0205 955.904 70.3211 956.879 72.1036C957.855 73.8861 958.119 76.0045 957.614 77.9926C957.109 79.9807 955.877 81.6758 954.187 82.7049Z" fill="#15AEFF"/>
<path d="M917.323 64.9897C912.96 65.2417 909.076 67.2227 906.039 69.9914L899.683 75.7901C897.251 78.0095 895.331 80.7864 894.071 83.9084C892.811 87.0305 892.245 90.4151 892.414 93.8037C893.605 117.197 895.135 135.935 899.452 150.049C903.888 164.535 911.399 174.592 924.502 179.962C933.258 183.548 941.457 176.779 943.043 168.37C944.277 161.791 945.477 155.205 946.644 148.612C947.107 145.987 948.103 143.498 949.564 141.317C951.024 139.136 952.914 137.313 955.105 135.975L985.081 117.712C989.508 115.016 994.843 114.499 999.687 116.297C1005.68 118.528 1011.68 120.725 1017.7 122.887C1025.39 125.639 1035.05 121.533 1036.48 111.74C1038.63 97.0807 1034.13 85.1877 1024.46 73.8952C1015.03 62.8898 1000.42 52.1225 981.818 39.3409C979.122 37.4916 976.061 36.3172 972.868 35.9075C969.676 35.4977 966.437 35.8634 963.4 36.9767L955.466 39.8834C951.673 41.271 948.102 43.832 945.714 47.6931C945.24 48.4579 944.776 49.2291 944.321 50.0065C942.597 52.939 940.344 55.3556 937.682 56.9776L928.962 62.2897C926.297 63.9137 923.189 64.7677 919.921 64.872C919.054 64.9003 918.188 64.9395 917.323 64.9897ZM949.857 89.8856C948.168 90.9147 946.16 91.1936 944.276 90.6608C942.392 90.1281 940.786 88.8275 939.81 87.045C938.835 85.2625 938.571 83.1442 939.076 81.156C939.58 79.1679 940.813 77.4728 942.502 76.4437C944.192 75.4146 946.199 75.1357 948.083 75.6684C949.967 76.2011 951.574 77.5018 952.549 79.2843C953.524 81.0668 953.788 83.1851 953.284 85.1732C952.779 87.1614 951.546 88.8564 949.857 89.8856Z" fill="#FF555D"/>
<path d="M918.812 61.0729C914.449 61.3249 910.565 63.3059 907.528 66.0747L901.172 71.8734C898.74 74.0928 896.82 76.8696 895.56 79.9917C894.301 83.1137 893.734 86.4984 893.904 89.887C895.094 113.281 896.625 132.018 900.942 146.132C905.377 160.618 912.888 170.675 925.991 176.045C934.747 179.631 942.946 172.862 944.532 164.454C945.766 157.875 946.966 151.289 948.133 144.696C948.596 142.07 949.592 139.581 951.053 137.4C952.513 135.219 954.403 133.397 956.594 132.058L986.571 113.796C990.997 111.099 996.332 110.582 1001.18 112.38C1007.17 114.611 1013.17 116.808 1019.19 118.97C1026.88 121.722 1036.54 117.616 1037.97 107.823C1040.12 93.1639 1035.62 81.271 1025.95 69.9784C1016.52 58.9731 1001.91 48.2057 983.307 35.4241C980.611 33.5749 977.55 32.4005 974.358 31.9907C971.165 31.581 967.927 31.9467 964.889 33.0599L956.955 35.9667C953.162 37.3543 949.591 39.9152 947.203 43.7764C946.73 44.5411 946.265 45.3123 945.811 46.0898C944.086 49.0223 941.833 51.4389 939.171 53.0608L930.451 58.373C927.786 59.9969 924.678 60.8509 921.41 60.9553C920.544 60.9835 919.678 61.0228 918.812 61.0729ZM951.346 85.9688C949.657 86.9979 947.649 87.2768 945.765 86.7441C943.881 86.2114 942.275 84.9107 941.3 83.1282C940.324 81.3457 940.06 79.2274 940.565 77.2393C941.07 75.2512 942.302 73.5561 943.992 72.527C945.681 71.4978 947.688 71.219 949.572 71.7517C951.456 72.2844 953.063 73.5851 954.038 75.3676C955.013 77.1501 955.278 79.2684 954.773 81.2565C954.268 83.2446 953.035 84.9397 951.346 85.9688Z" fill="#ADFFE3"/>
<path d="M7.71238 209.67C5.07239 207.779 3.25603 204.912 2.66288 201.699C2.06974 198.486 2.7484 195.191 4.54956 192.538C6.35072 189.885 9.12684 188.091 12.2672 187.552C15.4076 187.013 18.655 187.773 21.295 189.663C23.935 191.554 25.7513 194.421 26.3445 197.634C26.9376 200.847 26.2589 204.143 24.4578 206.796C22.6566 209.449 19.8805 211.242 16.7401 211.781C13.5998 212.32 10.3524 211.561 7.71238 209.67ZM-21.5921 214.7C-24.2321 212.809 -26.0484 209.942 -26.6416 206.729C-27.2347 203.516 -26.5561 200.221 -24.7549 197.568C-22.9537 194.915 -20.1776 193.121 -17.0372 192.582C-13.8969 192.043 -10.6495 192.803 -8.00949 194.693C-5.3695 196.584 -3.55314 199.451 -2.95999 202.664C-2.36685 205.877 -3.04551 209.173 -4.84667 211.826C-6.64783 214.479 -9.42396 216.272 -12.5643 216.811C-15.7047 217.35 -18.9521 216.591 -21.5921 214.7ZM2.17744 179.688C-0.462553 177.797 -2.27891 174.93 -2.87206 171.717C-3.4652 168.504 -2.78654 165.209 -0.985383 162.556C0.815779 159.903 3.5919 158.109 6.73227 157.57C9.87265 157.031 13.12 157.791 15.76 159.681C18.4 161.572 20.2164 164.439 20.8095 167.652C21.4027 170.865 20.724 174.161 18.9228 176.814C17.1217 179.467 14.3456 181.26 11.2052 181.799C8.06481 182.338 4.81744 181.579 2.17744 179.688ZM-27.127 184.718C-29.767 182.828 -31.5834 179.96 -32.1765 176.747C-32.7697 173.534 -32.091 170.239 -30.2898 167.586C-28.4887 164.933 -25.7125 163.139 -22.5722 162.6C-19.4318 162.061 -16.1844 162.821 -13.5444 164.711C-10.9044 166.602 -9.08808 169.469 -8.49494 172.682C-7.90179 175.895 -8.58045 179.191 -10.3816 181.844C-12.1828 184.497 -14.9589 186.29 -18.0993 186.829C-21.2396 187.368 -24.487 186.609 -27.127 184.718Z" fill="#15AEFF"/>
<path d="M9.56492 207.421C6.92493 205.53 5.10857 202.663 4.51542 199.45C3.92228 196.237 4.60094 192.942 6.4021 190.289C8.20326 187.636 10.9794 185.842 14.1198 185.303C17.2601 184.764 20.5075 185.523 23.1475 187.414C25.7875 189.305 27.6039 192.172 28.197 195.385C28.7901 198.598 28.1115 201.894 26.3103 204.547C24.5092 207.2 21.733 208.993 18.5927 209.532C15.4523 210.071 12.2049 209.312 9.56492 207.421ZM-19.7395 212.451C-22.3795 210.56 -24.1959 207.693 -24.789 204.48C-25.3822 201.267 -24.7035 197.972 -22.9024 195.319C-21.1012 192.666 -18.3251 190.872 -15.1847 190.333C-12.0443 189.794 -8.79695 190.554 -6.15695 192.444C-3.51696 194.335 -1.7006 197.202 -1.10746 200.415C-0.514309 203.628 -1.19297 206.924 -2.99413 209.577C-4.79529 212.23 -7.57142 214.023 -10.7118 214.562C-13.8522 215.101 -17.0995 214.342 -19.7395 212.451ZM4.02998 177.439C1.38999 175.548 -0.426372 172.681 -1.01952 169.468C-1.61266 166.255 -0.934006 162.96 0.867156 160.307C2.66832 157.654 5.44444 155.86 8.58481 155.321C11.7252 154.782 14.9726 155.542 17.6126 157.432C20.2526 159.323 22.0689 162.19 22.6621 165.403C23.2552 168.616 22.5765 171.912 20.7754 174.565C18.9742 177.218 16.1981 179.011 13.0577 179.55C9.91735 180.089 6.66997 179.33 4.02998 177.439ZM-25.2745 182.469C-27.9145 180.579 -29.7308 177.711 -30.324 174.498C-30.9171 171.285 -30.2385 167.99 -28.4373 165.337C-26.6361 162.684 -23.86 160.89 -20.7196 160.351C-17.5793 159.812 -14.3319 160.572 -11.6919 162.462C-9.0519 164.353 -7.23554 167.22 -6.6424 170.433C-6.04926 173.646 -6.72791 176.942 -8.52907 179.595C-10.3302 182.248 -13.1064 184.041 -16.2467 184.58C-19.3871 185.119 -22.6345 184.36 -25.2745 182.469Z" fill="#FF555D"/>
<path d="M8.53709 208.787C5.89709 206.896 4.08074 204.029 3.48759 200.816C2.89445 197.603 3.5731 194.307 5.37427 191.654C7.17543 189.001 9.95155 187.208 13.0919 186.669C16.2323 186.13 19.4797 186.889 22.1197 188.78C24.7597 190.671 26.576 193.538 27.1692 196.751C27.7623 199.964 27.0837 203.259 25.2825 205.912C23.4813 208.566 20.7052 210.359 17.5648 210.898C14.4245 211.437 11.1771 210.678 8.53709 208.787ZM-20.7674 213.817C-23.4074 211.926 -25.2237 209.059 -25.8169 205.846C-26.41 202.633 -25.7314 199.337 -23.9302 196.684C-22.129 194.031 -19.3529 192.238 -16.2125 191.699C-13.0722 191.16 -9.82478 191.919 -7.18479 193.81C-4.54479 195.701 -2.72843 198.568 -2.13529 201.781C-1.54214 204.994 -2.2208 208.289 -4.02196 210.943C-5.82312 213.596 -8.59925 215.389 -11.7396 215.928C-14.88 216.467 -18.1274 215.708 -20.7674 213.817ZM3.00215 178.805C0.362155 176.914 -1.4542 174.047 -2.04735 170.834C-2.64049 167.621 -1.96184 164.325 -0.160676 161.672C1.64049 159.019 4.41661 157.226 7.55698 156.687C10.6974 156.148 13.9447 156.907 16.5847 158.798C19.2247 160.689 21.0411 163.556 21.6342 166.769C22.2274 169.982 21.5487 173.278 19.7476 175.931C17.9464 178.584 15.1703 180.377 12.0299 180.916C8.88952 181.455 5.64214 180.696 3.00215 178.805ZM-26.3023 183.835C-28.9423 181.944 -30.7587 179.077 -31.3518 175.864C-31.9449 172.651 -31.2663 169.356 -29.4651 166.702C-27.664 164.049 -24.8878 162.256 -21.7475 161.717C-18.6071 161.178 -15.3597 161.937 -12.7197 163.828C-10.0797 165.719 -8.26337 168.586 -7.67023 171.799C-7.07709 175.012 -7.75574 178.308 -9.5569 180.961C-11.3581 183.614 -14.1342 185.407 -17.2746 185.946C-20.4149 186.485 -23.6623 185.726 -26.3023 183.835Z" fill="#ADFFE3"/>
<path d="M32.2747 1521.41C32.2747 1521.41 51.4681 1532.13 57.5582 1521.58C63.6483 1511.04 43.4583 1502.04 49.5484 1491.49C55.6385 1480.95 73.5223 1493.93 79.6124 1483.39C85.7025 1472.84 65.5125 1463.84 71.6026 1453.3C77.6927 1442.75 98.4158 1450.82 98.4158 1450.82" stroke="#D0C9FF" stroke-width="10" stroke-linecap="round" stroke-linejoin="round"/>
<path d="M36.0013 478.587C36.0013 478.587 55.1946 489.307 61.2847 478.759C67.3748 468.21 47.1848 459.216 53.2749 448.668C59.365 438.12 77.2488 451.108 83.3389 440.559C89.429 430.011 69.239 421.017 75.3291 410.469C81.4192 399.921 102.142 407.991 102.142 407.991" stroke="#D0C9FF" stroke-width="10" stroke-linecap="round" stroke-linejoin="round"/>
<path d="M1382 541.587C1382 541.587 1401.19 552.307 1407.28 541.759C1413.37 531.21 1393.18 522.216 1399.27 511.668C1405.36 501.12 1423.25 514.108 1429.34 503.559C1435.43 493.011 1415.24 484.017 1421.33 473.469C1427.42 462.921 1448.14 470.991 1448.14 470.991" stroke="#D0C9FF" stroke-width="10" stroke-linecap="round" stroke-linejoin="round"/>
<path d="M1411.02 1026.31L1434.35 1022.86L1438.4 1045.8L1422.68 1055.82L1406.97 1044.63L1411.02 1026.31Z" stroke="#D0C9FF" stroke-width="10" stroke-linejoin="round"/>
<path d="M413.019 227.311L436.352 223.864L440.403 246.803L424.683 256.817L408.969 245.631L413.019 227.311Z" stroke="#D0C9FF" stroke-width="10" stroke-linejoin="round"/>
<path d="M52.0193 2099.31L75.3517 2095.86L79.403 2118.8L63.6831 2128.82L47.969 2117.63L52.0193 2099.31Z" stroke="#D0C9FF" stroke-width="10" stroke-linejoin="round"/>
</g>
</g>
<defs>
<clipPath id="clip0_257_127">
<rect width="1440" height="2465" fill="white"/>
</clipPath>
<clipPath id="clip1_257_127">
<rect width="2495.15" height="3112" fill="white" transform="translate(-531 -542)"/>
</clipPath>
</defs>
</svg>
