<svg width="527" height="938" viewBox="0 0 527 938" fill="none" xmlns="http://www.w3.org/2000/svg">
<path d="M-92.3108 140.712L-44.382 153.993C-44.382 153.993 241.871 368.293 239.629 521.506C237.387 674.719 -52.8 729.284 -52.8 729.284L-100.729 716.003C-100.729 716.003 202.754 663.926 204.978 511.904C207.202 359.882 -92.3108 140.712 -92.3108 140.712Z" fill="#15AEFF"/>
<path d="M-112.686 128.995L-64.682 142.297C-64.682 142.297 222.026 356.65 219.785 509.781C217.545 662.912 -73.0954 717.279 -73.0954 717.279L-121.1 703.977C-121.1 703.977 182.856 652.104 185.08 500.164C187.303 348.224 -112.686 128.995 -112.686 128.995Z" fill="#FF555D"/>
<path d="M-102.163 137.822L-54.2339 151.103C-54.2339 151.103 232.019 365.402 229.777 518.616C227.535 671.829 -62.6518 726.394 -62.6518 726.394L-110.581 713.113C-110.581 713.113 192.902 661.036 195.126 509.014C197.351 356.992 -102.163 137.822 -102.163 137.822Z" fill="#ADFFE3"/>
</svg>
