<svg width="847" height="862" viewBox="0 0 847 862" fill="none" xmlns="http://www.w3.org/2000/svg">
<path d="M381.048 978.746L332.46 917.509C332.46 917.509 245.691 439.115 479.803 313.581C713.915 188.046 1211.51 446.148 1211.51 446.148L1260.1 507.384C1260.1 507.384 747.222 233.295 514.93 357.853C282.639 482.411 381.048 978.746 381.048 978.746Z" fill="#15AEFF"/>
<path d="M392.553 1009.85L343.889 948.513C343.889 948.513 256.549 469.599 490.535 344.131C724.521 218.664 1222.47 477.405 1222.47 477.405L1271.13 538.738C1271.13 538.738 757.885 263.982 525.718 388.474C293.552 512.965 392.553 1009.85 392.553 1009.85Z" fill="#FF555D"/>
<path d="M390.792 991.467L342.205 930.231C342.205 930.231 255.436 451.837 489.547 326.302C723.659 200.767 1221.26 458.869 1221.26 458.869L1269.84 520.106C1269.84 520.106 756.966 246.016 524.675 370.574C292.384 495.133 390.792 991.467 390.792 991.467Z" fill="#ADFFE3"/>
</svg>
