<svg width="1335" height="1201" viewBox="0 0 1335 1201" fill="none" xmlns="http://www.w3.org/2000/svg">
<path d="M312.319 625.55C302.816 626.07 294.356 630.159 287.742 635.874L273.899 647.843C268.601 652.424 264.42 658.155 261.676 664.599C258.932 671.043 257.698 678.03 258.067 685.024C260.661 733.31 263.994 771.985 273.396 801.117C283.056 831.016 299.416 851.776 327.955 862.858C347.026 870.261 364.883 856.289 368.337 838.934C371.025 825.354 373.64 811.76 376.18 798.152C377.19 792.733 379.359 787.596 382.54 783.094C385.721 778.591 389.838 774.83 394.609 772.068L459.899 734.373C469.54 728.806 481.16 727.739 491.709 731.451C504.762 736.057 517.84 740.591 530.942 745.054C547.696 750.733 568.734 742.258 571.852 722.044C576.524 691.788 566.726 667.24 545.666 643.931C525.134 621.216 493.307 598.991 452.791 572.609C446.918 568.792 440.251 566.368 433.298 565.523C426.346 564.677 419.292 565.432 412.675 567.729L395.395 573.729C387.135 576.593 379.357 581.879 374.155 589.849C373.124 591.427 372.113 593.019 371.123 594.624C367.367 600.677 362.459 605.665 356.661 609.013L337.669 619.977C331.864 623.329 325.095 625.092 317.978 625.307C316.09 625.365 314.204 625.446 312.319 625.55ZM383.179 676.936C379.5 679.061 375.127 679.636 371.024 678.537C366.92 677.437 363.421 674.753 361.297 671.073C359.173 667.394 358.597 663.022 359.697 658.918C360.797 654.815 363.481 651.316 367.16 649.192C370.84 647.068 375.212 646.492 379.315 647.592C383.419 648.691 386.918 651.376 389.042 655.055C391.166 658.734 391.742 663.106 390.642 667.21C389.543 671.314 386.858 674.812 383.179 676.936Z" fill="#457CFF"/>
<path d="M302.887 640.371C293.385 640.891 284.925 644.98 278.31 650.695L264.467 662.664C259.169 667.245 254.989 672.976 252.245 679.42C249.501 685.865 248.266 692.851 248.636 699.845C251.229 748.131 254.562 786.806 263.965 815.938C273.625 845.837 289.985 866.597 318.524 877.68C337.595 885.082 355.451 871.111 358.905 853.755C361.594 840.175 364.208 826.581 366.749 812.973C367.758 807.554 369.928 802.417 373.108 797.915C376.289 793.412 380.406 789.651 385.177 786.889L450.467 749.194C460.109 743.627 471.728 742.56 482.278 746.273C495.331 750.878 508.408 755.412 521.51 759.875C538.264 765.554 559.303 757.079 562.421 736.866C567.092 706.609 557.294 682.061 536.235 658.753C515.703 636.037 483.876 613.812 443.359 587.43C437.487 583.613 430.819 581.189 423.867 580.344C416.914 579.498 409.86 580.253 403.244 582.551L385.964 588.55C377.703 591.414 369.925 596.7 364.723 604.67C363.692 606.248 362.681 607.84 361.691 609.445C357.935 615.498 353.028 620.486 347.229 623.834L328.238 634.798C322.432 638.15 315.663 639.913 308.546 640.128C306.659 640.187 304.773 640.267 302.887 640.371ZM373.747 691.758C370.068 693.882 365.696 694.457 361.592 693.358C357.488 692.258 353.99 689.574 351.866 685.894C349.741 682.215 349.166 677.843 350.265 673.739C351.365 669.636 354.05 666.137 357.729 664.013C361.408 661.889 365.78 661.313 369.884 662.413C373.987 663.512 377.486 666.197 379.61 669.876C381.734 673.555 382.31 677.927 381.211 682.031C380.111 686.135 377.426 689.633 373.747 691.758Z" fill="#FF8900"/>
<path d="M306.131 632.287C296.628 632.807 288.169 636.896 281.554 642.611L267.711 654.58C262.413 659.161 258.232 664.892 255.488 671.336C252.744 677.78 251.51 684.766 251.879 691.761C254.473 740.047 257.806 778.722 267.208 807.854C276.868 837.753 293.228 858.513 321.767 869.595C340.838 876.998 358.695 863.026 362.149 845.671C364.837 832.091 367.452 818.497 369.992 804.889C371.002 799.47 373.171 794.333 376.352 789.83C379.533 785.328 383.65 781.567 388.421 778.805L453.711 741.11C463.352 735.543 474.972 734.476 485.521 738.188C498.574 742.793 511.652 747.328 524.754 751.791C541.508 757.47 562.546 748.995 565.664 728.781C570.336 698.525 560.538 673.977 539.478 650.668C518.946 627.953 487.119 605.728 446.603 579.346C440.73 575.529 434.063 573.105 427.11 572.259C420.158 571.414 413.104 572.169 406.487 574.466L389.207 580.466C380.947 583.33 373.169 588.616 367.967 596.586C366.936 598.164 365.925 599.756 364.935 601.361C361.179 607.414 356.271 612.402 350.473 615.749L331.481 626.714C325.676 630.066 318.907 631.829 311.79 632.044C309.902 632.102 308.016 632.183 306.131 632.287ZM376.991 683.673C373.312 685.798 368.939 686.373 364.836 685.274C360.732 684.174 357.233 681.489 355.109 677.81C352.985 674.131 352.409 669.759 353.509 665.655C354.609 661.552 357.293 658.053 360.972 655.929C364.652 653.804 369.024 653.229 373.127 654.328C377.231 655.428 380.73 658.113 382.854 661.792C384.978 665.471 385.554 669.843 384.454 673.947C383.355 678.05 380.67 681.549 376.991 683.673Z" fill="#00FF79"/>
<path d="M62 0H136C136 0 581 279.477 581 598C581 916.523 136 1196 136 1196H62C62 1196 527.5 914.045 527.5 598C527.5 281.955 62 0 62 0Z" fill="#FF3F4B"/>
<path d="M86 0H160C160 0 605 280.646 605 600.5C605 920.354 160 1201 160 1201H86C86 1201 551.5 917.867 551.5 600.5C551.5 283.133 86 0 86 0Z" fill="#457CFF"/>
<path d="M75 0H149C149 0 594 279.477 594 598C594 916.523 149 1196 149 1196H75C75 1196 540.5 914.045 540.5 598C540.5 281.955 75 0 75 0Z" fill="#BD00FF"/>
<path d="M1450.38 505.945L1412.12 535.962C1412.12 535.962 1068.95 572.304 940.031 407.997C811.114 243.69 928.06 -80.983 928.06 -80.983L966.317 -111C966.317 -111 839.776 223.267 967.69 386.296C1095.6 549.325 1450.38 505.945 1450.38 505.945Z" fill="#FF8900"/>
<path d="M1471.8 499.613L1433.48 529.678C1433.48 529.678 1090.01 566.382 961.161 402.163C832.313 237.944 949.683 -86.9357 949.683 -86.9357L988 -117C988 -117 861.018 217.486 988.864 380.427C1116.71 543.369 1471.8 499.613 1471.8 499.613Z" fill="#457CFF"/>
<path d="M1458.38 499.945L1420.12 529.962C1420.12 529.962 1076.95 566.304 948.031 401.997C819.114 237.69 936.06 -86.983 936.06 -86.983L974.317 -117C974.317 -117 847.776 217.267 975.69 380.296C1103.6 543.325 1458.38 499.945 1458.38 499.945Z" fill="#00FF79"/>
<path d="M1051.47 466.883L872.014 367.328C867.698 364.934 862.277 366.487 859.883 370.802L760.329 550.256C757.934 554.572 759.487 559.993 763.802 562.387L943.256 661.941C947.572 664.335 952.993 662.783 955.387 658.467L1054.94 479.014C1057.34 474.698 1055.78 469.277 1051.47 466.883ZM907.078 516.271L838.486 529.556C836.623 529.925 835.198 527.954 836.118 526.296L844.599 511.009C844.91 510.448 845.489 510.036 846.131 509.914L885.374 502.285L871.073 464.953C870.948 464.651 870.893 464.325 870.913 463.999C870.934 463.673 871.029 463.356 871.192 463.073L879.673 447.785C880.592 446.127 883.019 446.294 883.692 448.07L908.742 513.272C909.26 514.58 908.462 516.018 907.078 516.271ZM935.597 581.484C935.002 582.557 933.686 582.975 932.687 582.42L887.579 557.396C886.58 556.842 886.238 555.504 886.833 554.431L893.325 542.728C893.921 541.655 895.236 541.237 896.236 541.792L941.343 566.816C942.343 567.37 942.685 568.708 942.09 569.781L935.597 581.484Z" fill="#FF3F4B"/>
<path d="M1066.47 463.883L887.014 364.328C882.698 361.934 877.277 363.487 874.883 367.802L775.328 547.256C772.934 551.572 774.486 556.993 778.802 559.387L958.256 658.941C962.572 661.335 967.992 659.783 970.387 655.467L1069.94 476.014C1072.34 471.698 1070.78 466.277 1066.47 463.883ZM922.078 513.271L853.486 526.556C851.623 526.925 850.197 524.954 851.117 523.296L859.598 508.009C859.909 507.448 860.489 507.036 861.131 506.914L900.374 499.285L886.073 461.953C885.947 461.651 885.892 461.325 885.913 460.999C885.933 460.673 886.029 460.356 886.191 460.073L894.672 444.785C895.592 443.127 898.019 443.294 898.692 445.07L923.742 510.272C924.26 511.58 923.462 513.018 922.078 513.271ZM950.597 578.484C950.002 579.557 948.686 579.975 947.686 579.42L902.579 554.396C901.579 553.842 901.237 552.504 901.832 551.431L908.325 539.728C908.92 538.655 910.236 538.237 911.236 538.792L956.343 563.816C957.343 564.37 957.685 565.708 957.09 566.781L950.597 578.484Z" fill="#457CFF"/>
<path d="M1060.47 465.397L881.014 365.842C876.698 363.448 871.277 365 868.883 369.316L769.328 548.77C766.934 553.085 768.486 558.506 772.802 560.901L952.256 660.455C956.572 662.849 961.992 661.297 964.387 656.981L1063.94 477.527C1066.34 473.212 1064.78 467.791 1060.47 465.397ZM916.078 514.785L847.486 528.069C845.623 528.439 844.197 526.468 845.117 524.81L853.598 509.522C853.909 508.962 854.489 508.55 855.131 508.427L894.374 500.799L880.073 463.466C879.947 463.165 879.892 462.839 879.913 462.513C879.933 462.187 880.029 461.87 880.191 461.587L888.672 446.299C889.592 444.641 892.019 444.808 892.692 446.584L917.742 511.786C918.26 513.093 917.462 514.532 916.078 514.785ZM944.597 579.998C944.002 581.071 942.686 581.489 941.686 580.934L896.579 555.91C895.579 555.356 895.237 554.018 895.832 552.945L902.325 541.242C902.92 540.169 904.236 539.751 905.236 540.306L950.343 565.329C951.343 565.884 951.685 567.222 951.09 568.294L944.597 579.998Z" fill="#BD00FF"/>
<path d="M1077.44 78.832C1084.57 82.5712 1089.77 88.7299 1091.9 95.9534C1094.03 103.177 1092.92 110.873 1088.8 117.35C1084.68 123.826 1077.9 128.552 1069.95 130.487C1061.99 132.423 1053.52 131.41 1046.39 127.67C1039.25 123.931 1034.05 117.773 1031.92 110.549C1029.79 103.326 1030.9 95.6292 1035.02 89.1528C1039.14 82.6764 1045.92 77.9507 1053.87 76.0152C1061.83 74.0796 1070.3 75.0929 1077.44 78.832ZM1151.66 60.7707C1158.79 64.5098 1164 70.6686 1166.13 77.892C1168.26 85.1155 1167.15 92.812 1163.03 99.2883C1158.91 105.765 1152.13 110.49 1144.17 112.426C1136.22 114.362 1127.74 113.348 1120.61 109.609C1113.48 105.87 1108.28 99.7113 1106.15 92.4878C1104.01 85.2643 1105.13 77.5678 1109.25 71.0915C1113.36 64.6151 1120.15 59.8893 1128.1 57.9538C1136.06 56.0183 1144.53 57.0316 1151.66 60.7707ZM1097.32 146.238C1104.46 149.977 1109.66 156.136 1111.79 163.359C1113.92 170.583 1112.81 178.279 1108.69 184.756C1104.57 191.232 1097.79 195.958 1089.84 197.893C1081.88 199.829 1073.41 198.815 1066.27 195.076C1059.14 191.337 1053.94 185.178 1051.81 177.955C1049.68 170.732 1050.79 163.035 1054.91 156.559C1059.03 150.082 1065.81 145.357 1073.76 143.421C1081.72 141.486 1090.19 142.499 1097.32 146.238ZM1171.55 128.177C1178.68 131.916 1183.89 138.074 1186.02 145.298C1188.15 152.521 1187.03 160.218 1182.92 166.694C1178.8 173.171 1172.02 177.896 1164.06 179.832C1156.11 181.767 1147.63 180.754 1140.5 177.015C1133.37 173.276 1128.17 167.117 1126.03 159.894C1123.9 152.67 1125.02 144.974 1129.14 138.497C1133.25 132.021 1140.04 127.295 1147.99 125.36C1155.94 123.424 1164.42 124.437 1171.55 128.177Z" fill="#457CFF"/>
<path d="M1073.11 84.395C1080.24 88.1342 1085.44 94.2929 1087.58 101.516C1089.71 108.74 1088.59 116.436 1084.47 122.913C1080.36 129.389 1073.57 134.115 1065.62 136.05C1057.67 137.986 1049.19 136.973 1042.06 133.233C1034.93 129.494 1029.72 123.336 1027.59 116.112C1025.46 108.889 1026.58 101.192 1030.69 94.7158C1034.81 88.2394 1041.59 83.5137 1049.55 81.5782C1057.5 79.6426 1065.98 80.6559 1073.11 84.395ZM1147.34 66.3337C1154.47 70.0728 1159.67 76.2315 1161.8 83.455C1163.93 90.6785 1162.82 98.375 1158.7 104.851C1154.58 111.328 1147.8 116.053 1139.85 117.989C1131.89 119.925 1123.42 118.911 1116.29 115.172C1109.15 111.433 1103.95 105.274 1101.82 98.0508C1099.69 90.8273 1100.8 83.1308 1104.92 76.6545C1109.04 70.1781 1115.82 65.4523 1123.77 63.5168C1131.73 61.5813 1140.2 62.5945 1147.34 66.3337ZM1093 151.801C1100.13 155.54 1105.33 161.699 1107.47 168.922C1109.6 176.146 1108.48 183.842 1104.36 190.319C1100.25 196.795 1093.46 201.521 1085.51 203.456C1077.56 205.392 1069.08 204.378 1061.95 200.639C1054.82 196.9 1049.61 190.741 1047.48 183.518C1045.35 176.295 1046.47 168.598 1050.58 162.122C1054.7 155.645 1061.48 150.92 1069.44 148.984C1077.39 147.049 1085.87 148.062 1093 151.801ZM1167.23 133.74C1174.36 137.479 1179.56 143.637 1181.69 150.861C1183.82 158.084 1182.71 165.781 1178.59 172.257C1174.47 178.734 1167.69 183.459 1159.74 185.395C1151.78 187.33 1143.31 186.317 1136.17 182.578C1129.04 178.839 1123.84 172.68 1121.71 165.457C1119.58 158.233 1120.69 150.537 1124.81 144.06C1128.93 137.584 1135.71 132.858 1143.66 130.923C1151.62 128.987 1160.09 130 1167.23 133.74Z" fill="#FF3F4D"/>
<path d="M1075.49 81.0385C1082.62 84.7776 1087.82 90.9363 1089.95 98.1598C1092.09 105.383 1090.97 113.08 1086.85 119.556C1082.74 126.032 1075.95 130.758 1068 132.694C1060.04 134.629 1051.57 133.616 1044.44 129.877C1037.31 126.138 1032.1 119.979 1029.97 112.756C1027.84 105.532 1028.95 97.8356 1033.07 91.3592C1037.19 84.8829 1043.97 80.1571 1051.93 78.2216C1059.88 76.2861 1068.36 77.2993 1075.49 81.0385ZM1149.71 62.9771C1156.85 66.7163 1162.05 72.875 1164.18 80.0984C1166.31 87.3219 1165.2 95.0184 1161.08 101.495C1156.96 107.971 1150.18 112.697 1142.23 114.632C1134.27 116.568 1125.8 115.555 1118.66 111.816C1111.53 108.076 1106.33 101.918 1104.2 94.6942C1102.07 87.4708 1103.18 79.7743 1107.3 73.2979C1111.42 66.8215 1118.2 62.0958 1126.15 60.1602C1134.11 58.2247 1142.58 59.238 1149.71 62.9771ZM1095.38 148.444C1102.51 152.183 1107.71 158.342 1109.84 165.566C1111.98 172.789 1110.86 180.486 1106.74 186.962C1102.62 193.438 1095.84 198.164 1087.89 200.1C1079.93 202.035 1071.46 201.022 1064.33 197.283C1057.19 193.544 1051.99 187.385 1049.86 180.161C1047.73 172.938 1048.84 165.241 1052.96 158.765C1057.08 152.289 1063.86 147.563 1071.82 145.627C1079.77 143.692 1088.24 144.705 1095.38 148.444ZM1169.6 130.383C1176.74 134.122 1181.94 140.281 1184.07 147.504C1186.2 154.728 1185.09 162.424 1180.97 168.901C1176.85 175.377 1170.07 180.103 1162.11 182.038C1154.16 183.974 1145.69 182.961 1138.55 179.221C1131.42 175.482 1126.22 169.324 1124.09 162.1C1121.95 154.877 1123.07 147.18 1127.19 140.704C1131.31 134.227 1138.09 129.502 1146.04 127.566C1154 125.631 1162.47 126.644 1169.6 130.383Z" fill="#BD00FF"/>
</svg>
